<svg width="699.544" height="670.464" viewBox="0 0 185.088 177.394"
   xmlns="http://www.w3.org/2000/svg">
   <defs>
      <clipPath clipPathUnits="userSpaceOnUse" id="a">
         <path d="M0 1000h1000V0H0Z"/>
      </clipPath>
   </defs>
   <g clip-path="url(#a)" transform="matrix(.35278 0 0 -.35278 -83.845 265.086)">
      <path d="M0 0c0 4.227 3.418 7.645 7.627 7.645 4.227 0 7.664-3.418 7.664-7.645 0-4.209-3.437-7.646-7.664-7.646C3.418-7.646 0-4.209 0 0m11.908-41.015v23.08C20.039-16.01 26.084-8.689 26.084 0c0 10.181-8.275 18.438-18.457 18.438-10.164 0-18.42-8.257-18.42-18.438 0-7.879 4.946-14.607 11.908-17.251v-29.268l22.936-16.639v-47.617h10.793v53.121z" style="fill:#29abe2;fill-opacity:1;fill-rule:nonzero;stroke:none" transform="translate(485.156 614.476)"/>
      <path d="M0 0c-4.209 0-7.627 3.418-7.627 7.646 0 4.208 3.418 7.645 7.627 7.645 4.228 0 7.664-3.437 7.664-7.645C7.664 3.418 4.228 0 0 0m18.457 7.646c0 10.163-8.275 18.438-18.457 18.438-10.164 0-18.42-8.275-18.42-18.438 0-8.293 5.486-15.327 13.024-17.63v-60.694H5.397v60.695c7.555 2.302 13.06 9.317 13.06 17.629" style="fill:#29abe2;fill-opacity:1;fill-rule:nonzero;stroke:none" transform="translate(397.443 574.163)"/>
      <path d="M0 0c-4.209 0-7.627 3.418-7.627 7.646 0 4.208 3.418 7.645 7.627 7.645 4.228 0 7.664-3.437 7.664-7.645C7.664 3.418 4.228 0 0 0m0 26.084c-10.163 0-18.42-8.275-18.42-18.438 0-8.312 5.486-15.327 13.042-17.629v-60.695H5.415v60.694c7.537 2.303 13.042 9.337 13.042 17.63 0 10.163-8.275 18.438-18.457 18.438" style="fill:#005ea5;fill-opacity:1;fill-rule:nonzero;stroke:none" transform="translate(544.05 574.163)"/>
      <path d="m0 0-21.353-35.761-6.853-11.477c-1.296 1.691-2.627 3.345-3.94 4.983-28.386 34.844-61.036 53.588-86.31 63.572-14.265 5.666-26.191 8.544-33.692 9.948l.521.845 26.317 42.291-24.95 31.805c38.964-6.548 77.927-13.096 116.872-19.698C-8.977 55.477 15.38 24.393 39.737-6.674Zm-32.146-108.652c0-7.195-5.846-13.042-13.042-13.042h-201.474c-7.195 0-13.041 5.847-13.041 13.042V8.275c0 7.195 5.846 13.042 13.041 13.042h88.487c15.344-2.464 79.582-16.37 126.029-81.345zm88.558 98.147c-.251.341-.432.593-.611.845l-5.99 7.627C24.824 29.843-.162 61.719-25.202 93.56c-1.421 1.816-3.652 3.129-5.954 3.525a88033.321 88033.321 0 0 1-120.003 20.202l-8.994 1.511c-.432.072-.864.125-1.386.198l-12.646 1.636 7.105-10.379c.253-.396.45-.684.684-.971l27.919-35.6-25.868-41.572h-82.317c-13.149 0-23.835-10.685-23.835-23.835v-116.927c0-13.149 10.686-23.835 23.835-23.835h95.529l-.154-16.189h-18.585a5.398 5.398 0 0 1 0-10.794h47.895a5.398 5.398 0 0 1 0 10.794h-18.516l.154 16.189h95.151c13.15 0 23.835 10.686 23.835 23.835v51.844L5.486-11.854l23.563-3.958c-4.13-6.951-8.281-13.89-12.404-20.845-.514-.866-.99-1.279-2.124-1.247-5.86.163-10.037-5.491-8.287-11.08.128-.41.265-.817.397-1.226-4.857-3.458-8.804-7.742-12.561-12.215-3.924-4.674-7.554-9.545-10.974-14.561L2.3-88.452c3.994 7.512 7.515 15.256 10.075 23.393 1.033 3.284 1.744 6.669 2.621 10.084-.02-.004.107.029.235.049 6.637 1.051 9.649 7.276 6.307 13.142-.448.786-.067 1.223.257 1.765 4.595 7.704 9.194 15.406 13.793 23.108l14.079-2.373c.432-.09.899-.126 1.457-.18l12.7-1.385z" style="fill:#005ea5;fill-opacity:1;fill-rule:nonzero;stroke:none" transform="translate(622.752 630.792)"/>
      <path d="M0 0c-4.209 0-7.627 3.436-7.627 7.646 0 4.227 3.418 7.645 7.627 7.645 4.228 0 7.664-3.418 7.664-7.645C7.664 3.436 4.228 0 0 0m0 26.083c-10.164 0-18.42-8.256-18.42-18.437 0-8.689 6.044-16.011 14.157-17.936v-23.08l-22.936-16.639v-53.12h10.793v47.616L6.53-38.873v29.267C13.492-6.961 18.457-.234 18.457 7.646c0 10.181-8.275 18.437-18.457 18.437" style="fill:#005ea5;fill-opacity:1;fill-rule:nonzero;stroke:none" transform="translate(448.71 606.83)"/>
      <path d="M0 0h12.8v-36.399c-4.623-3.824-10-6.757-16.133-8.8-6.134-2.044-12.533-3.068-19.2-3.068-9.423 0-17.913 2.068-25.466 6.201-7.557 4.133-13.49 9.821-17.8 17.066-4.313 7.244-6.467 15.399-6.467 24.466 0 9.067 2.154 17.244 6.467 24.534 4.31 7.287 10.266 12.977 17.866 17.066 7.6 4.088 16.154 6.133 25.667 6.133 7.466 0 14.243-1.222 20.333-3.667C4.154 41.087 9.333 37.51 13.6 32.799l-8.267-8.266c-7.466 7.2-16.489 10.8-27.066 10.8-7.113 0-13.489-1.534-19.133-4.6-5.646-3.067-10.067-7.334-13.267-12.799-3.2-5.468-4.8-11.623-4.8-18.468 0-6.755 1.6-12.866 4.8-18.332 3.2-5.467 7.621-9.757 13.267-12.867 5.644-3.113 11.977-4.666 18.999-4.666 8.354 0 15.644 2 21.867 6z" style="fill:#005ea5;fill-opacity:1;fill-rule:nonzero;stroke:none" transform="translate(309.937 382.017)"/>
      <path d="M0 0v-11.6h-67.732v93.332h65.865V70.133H-54.4V41.466h46.8V30.133h-46.8V0Z" style="fill:#005ea5;fill-opacity:1;fill-rule:nonzero;stroke:none" transform="translate(415.934 346.417)"/>
      <path d="M0 0c5.467 3.11 9.777 7.4 12.933 12.867 3.154 5.466 4.734 11.577 4.734 18.332 0 6.755-1.58 12.867-4.734 18.334C9.777 55 5.467 59.287 0 62.399c-5.466 3.111-11.623 4.667-18.466 4.667-6.846 0-13.045-1.556-18.6-4.667-5.556-3.112-9.913-7.399-13.066-12.866-3.157-5.467-4.734-11.579-4.734-18.334 0-6.755 1.577-12.866 4.734-18.332C-46.979 7.4-42.622 3.11-37.066 0c5.555-3.112 11.754-4.666 18.6-4.666 6.843 0 13 1.554 18.466 4.666m-43.932-10.333c-7.557 4.134-13.49 9.844-17.8 17.134-4.312 7.287-6.467 15.42-6.467 24.398s2.155 17.112 6.467 24.401c4.31 7.287 10.243 13 17.8 17.133 7.553 4.133 16.043 6.2 25.466 6.2 9.333 0 17.777-2.067 25.334-6.2C14.42 68.6 20.333 62.91 24.6 55.666c4.267-7.245 6.4-15.399 6.4-24.467 0-9.066-2.133-17.221-6.4-24.466C20.333-.512 14.42-6.199 6.868-10.333c-7.557-4.133-16.001-6.2-25.334-6.2-9.423 0-17.913 2.067-25.466 6.2" style="fill:#005ea5;fill-opacity:1;fill-rule:nonzero;stroke:none" transform="translate(497.734 350.283)"/>
      <path d="M0 0c4.443 3.644 6.666 8.844 6.666 15.6 0 6.754-2.223 11.932-6.666 15.533-4.447 3.6-10.891 5.4-19.334 5.4h-22.667v-42h22.667C-10.891-5.467-4.447-3.646 0 0m7.065-45.199-20.132 28.666c-2.491-.18-4.446-.267-5.868-.267h-23.066v-28.399h-13.333v93.332h36.399c12.088 0 21.601-2.89 28.533-8.666 6.934-5.779 10.401-13.735 10.401-23.867 0-7.201-1.779-13.333-5.333-18.4-3.557-5.067-8.624-8.756-15.201-11.066L21.6-45.199Z" style="fill:#005ea5;fill-opacity:1;fill-rule:nonzero;stroke:none" transform="translate(604.467 380.017)"/>
      <path d="M0 0h12.8v-36.399c-4.623-3.824-10-6.757-16.134-8.8-6.133-2.044-12.533-3.068-19.199-3.068-9.423 0-17.913 2.068-25.466 6.201C-55.556-37.933-61.489-32.245-65.8-25c-4.313 7.244-6.467 15.399-6.467 24.466 0 9.067 2.154 17.244 6.467 24.534 4.311 7.287 10.267 12.977 17.867 17.066 7.6 4.088 16.154 6.133 25.665 6.133 7.468 0 14.245-1.222 20.334-3.667C4.154 41.087 9.333 37.51 13.6 32.799l-8.267-8.266c-7.467 7.2-16.489 10.8-27.066 10.8-7.113 0-13.49-1.534-19.133-4.6-5.647-3.067-10.067-7.334-13.267-12.799-3.199-5.468-4.8-11.623-4.8-18.468 0-6.755 1.601-12.866 4.8-18.332 3.2-5.467 7.62-9.757 13.267-12.867 5.643-3.113 11.975-4.666 18.999-4.666 8.354 0 15.643 2 21.867 6z" style="fill:#005ea5;fill-opacity:1;fill-rule:nonzero;stroke:none" transform="translate(710.73 382.017)"/>
      <path d="M748.995 428.149h13.334v-93.332h-13.334z" style="fill:#005ea5;fill-opacity:1;fill-rule:nonzero;stroke:none"/>
      <path d="M0 0v-17.645h-7.218V.146l-20.27 33.249h7.801L-3.354 6.49l16.406 26.905h7.218z" style="fill:#005ea5;fill-opacity:1;fill-rule:nonzero;stroke:none" transform="translate(400.396 266.22)"/>
      <path d="m0 0-11.01 25.009L-22.02 0Zm2.552-5.833h-27.124l-5.614-12.76h-7.51l23.113 51.039h7.219l23.186-51.039H8.167Z" style="fill:#005ea5;fill-opacity:1;fill-rule:nonzero;stroke:none" transform="translate(454.935 267.169)"/>
      <path d="M0 0v-51.039h-5.979l-30.624 38.06v-38.06h-7.292V0h5.979l30.625-38.061V0Z" style="fill:#005ea5;fill-opacity:1;fill-rule:nonzero;stroke:none" transform="translate(522.234 299.615)"/>
      <path d="M0 0v-6.344h-37.041v51.039h36.02v-6.342h-28.728V22.676h25.593v-6.198h-25.593V0Z" style="fill:#005ea5;fill-opacity:1;fill-rule:nonzero;stroke:none" transform="translate(574.587 254.92)"/>
      <path d="m0 0-22.386-51.039h-7.218L-52.061 0h7.874l18.375-41.925L-7.292 0Z" style="fill:#005ea5;fill-opacity:1;fill-rule:nonzero;stroke:none" transform="translate(630.002 299.615)"/>
   </g>
</svg>