<svg xmlns="http://www.w3.org/2000/svg" width="1200" height="400"><g fill="#0476D8"><circle cx="201.976" cy="168.231" r="11.701"/><ellipse cx="150.435" cy="204.171" rx="12.398" ry="11.701"/><ellipse cx="172.305" cy="234.399" rx="12.676" ry="12.119"/><path d="M160.743 187.594l3.343-31.064 26.189 12.537zM200.443 215.872l-7.382 30.646 30.228-7.383zM212.563 216.568l6.686-30.506 23.959 23.541z"/></g><path fill="#8F8F8F" d="M92.138 76.711C68.866 76.711 50 94.361 50 116.133s18.866 39.422 42.138 39.422 42.138-17.65 42.138-39.422-18.866-39.422-42.138-39.422zm-26.536 53.352s-.402-11.6 12.119-25.074c12.816-13.791 31.76-13.094 31.76-13.094l4.597 44.437-48.476-6.269zM285.904 72.115c-23.272 0-42.138 17.65-42.138 39.422s18.866 39.422 42.138 39.422 42.138-17.65 42.138-39.422-18.866-39.422-42.138-39.422zm18.085 59.063l-46.064-4.379a.326.326 0 01-.284-.265c-.18-1.016-.32-6.637 4.187-13.558 5.2-7.986 17.087-28.417 20.988-29.16 3.9-.743 21.174 10.587 23.402 19.873 2.229 9.287-2.229 27.489-2.229 27.489zM288.133 246.518c-23.272 0-42.138 17.65-42.138 39.422s18.866 39.422 42.138 39.422 42.138-17.65 42.138-39.422c0-21.773-18.866-39.422-42.138-39.422zm-10.657 66.724s-15.323-39.143-14.348-41.79c0 0 18.581-5.015 43.183-3.9 0 0 3.9 8.776 5.015 34.546 0 0-30.089 11.283-33.85 11.144zM98.086 249.13c-23.21-1.696-43.313 14.531-44.9 36.245-1.587 21.714 15.942 40.692 39.152 42.388 23.21 1.696 43.313-14.531 44.9-36.245 1.588-21.714-15.941-40.692-39.152-42.388zm26.589 37.051c-3.62 5.921-18.076 29.239-21.602 29.847-4.04.697-12.537-4.179-23.124-16.716s-13.553-23.542-12.258-23.96c0 0 26.188-8.637 28.974-9.472 2.786-.836 7.383 2.507 10.726 5.572 2.739 2.511 13.143 9.882 16.816 12.466.73.513.934 1.502.468 2.263z"/><g fill="#0476D8"><path d="M395.177 268.169s-12.599-33.789-8.304-91.06L364.824 166.8s16.322-6.013 19.472-10.595c3.15-4.582 11.168-23.194 15.177-24.054 4.009-.859 41.521-7.731 51.257-7.159v11.884s-36.653 6.157-49.253 15.893l.573 2.004 59.991 12.599-58.845 9.45c-.001 0 4.294 61.709-8.019 91.347z"/><path d="M578.872 197.726c-3.723-33.503-29.924-39.803-55.695-38.944-25.772.859-62.997 3.15-62.997 3.15l.143 125.708h16.752v-33.79s35.937 8.591 67.293 3.293c31.354-5.296 38.226-25.914 34.504-59.417zm-33.36 45.96c-18.47 2.72-43.239 3.436-54.98-2.291-11.74-5.727-13.888-13.888-12.599-35.364 1.252-20.866 3.868-32.065 31.928-34.505 29.637-2.577 53.692 2.148 53.691 26.184-.001 22.208.429 43.255-18.04 45.976zM1010.519 197.726c-3.723-33.503-29.924-39.803-55.695-38.944s-61.852 4.295-61.852 4.295L891.97 287.64h16.752v-33.79s35.937 8.591 67.293 3.293c31.354-5.296 38.226-25.914 34.504-59.417zm-33.36 45.96c-18.47 2.72-43.239 3.436-54.98-2.291-11.74-5.727-13.888-13.888-12.599-35.364 1.252-20.866 3.868-32.065 31.928-34.505 29.637-2.577 53.692 2.148 53.691 26.184-.001 22.208.43 43.255-18.04 45.976zM586.889 153.914s16.465 39.373 27.633 59.561 25.915 47.821 25.915 47.821 18.899-3.293 31.355-24.197 37.083-71.874 38.944-71.874 30.162 11.788 30.162 11.788 1.909 49.252 3.341 59.37c1.432 10.118 7.35 16.895 21.286 19.186 13.936 2.291 31.117 2.004 41.998-2.959 10.881-4.963 12.695-14.89 13.745-26.631 1.05-11.74 1.909-19.758 1.909-19.758s-23.767 37.894-25.008 37.989c-1.241.095-34.744-3.723-35.794-5.154-1.05-1.432-2.959-64.715-2.959-64.715h60.325v-14.413H760.18l-.764-25.963h-17.181l-.382 27.49h-49.825l-40.757 80.847h-3.245s-14.127-32.549-26.822-54.693c-12.695-22.145-31.022-34.363-34.315-33.695zM848.758 256.571h18.756s-.43-62.281-.859-77.744c-.43-15.463-3.436-25.772-3.436-25.772s-12.599 12.313-13.029 20.76-1.432 82.756-1.432 82.756z"/><ellipse cx="858.422" cy="137.735" rx="14.246" ry="12.17"/><path d="M1150 186.272s-49.443-20.426-101.178-11.263v23.29s44.671.764 59.943 2.1 34.362 4.009 35.126 24.054c.764 20.045-4.582 35.126-52.689 35.126s-51.543-9.927-54.98-17.563c-3.436-7.636-7.063-16.608-7.063-16.608l29.399 18.327s44.098-.573 55.17-.573 13.745-3.054 14.509-12.79c.764-9.736-4.391-13.437-15.272-14.259-10.881-.822-45.816-2.54-63.57-5.404-17.754-2.864-19.09-14.89-19.09-23.863s3.627-22.526 36.08-27.299c32.454-4.774 69.679-2.483 83.615 26.725z"/></g></svg>