<svg xmlns="http://www.w3.org/2000/svg" xmlns:xlink="http://www.w3.org/1999/xlink" width="1056" height="816" viewBox="0 0 792 612"><defs><symbol overflow="visible" id="a"><path d="M5.078-6.234L2.875-.484.656-6.234H.203L2.656 0h.438L5.53-6.234zm0 0"/></symbol><symbol overflow="visible" id="c"><path d="M4.219-6.234H.89V0h3.437v-.344h-3v-2.625h2.797v-.344H1.328V-5.89h2.89zm0 0"/></symbol><symbol overflow="visible" id="d"><path d="M1.328 0v-2.672h1.547L4.313 0h.453L3.28-2.734c.156-.051.317-.125.485-.22a1.98 1.98 0 0 0 .468-.374c.145-.145.258-.313.344-.5.094-.195.14-.422.14-.672 0-.27-.054-.508-.155-.719a1.589 1.589 0 0 0-.438-.531c-.18-.156-.39-.27-.64-.344a2.832 2.832 0 0 0-.797-.14H.89V0zm1.313-5.89c.52 0 .914.132 1.187.39.281.262.422.621.422 1.078 0 .2-.04.375-.11.531a1.729 1.729 0 0 1-.28.422 1.65 1.65 0 0 1-.86.453H1.328V-5.89zm0 0"/></symbol><symbol overflow="visible" id="e"><path d="M.89 0h.422v-6.234H.891zm0 0"/></symbol><symbol overflow="visible" id="f"><path d="M4.125-6.234H.891V0h.437v-2.969h2.578v-.344H1.328V-5.89h2.797zm0 0"/></symbol><symbol overflow="visible" id="g"><path d="M2.36 0c.425 0 .82-.07 1.187-.219A2.58 2.58 0 0 0 4.5-.844c.27-.27.477-.597.625-.984a3.41 3.41 0 0 0 .234-1.297c0-.445-.07-.86-.203-1.234a2.658 2.658 0 0 0-.562-.97 2.54 2.54 0 0 0-.938-.655c-.375-.157-.808-.239-1.297-.25H.891V0zM1.312-.344V-5.89h1.046c.414 0 .782.07 1.094.204a2.1 2.1 0 0 1 .797.578c.207.25.363.554.469.906.113.344.172.73.172 1.156 0 .43-.07.809-.204 1.14A2.403 2.403 0 0 1 3.329-.53a2.714 2.714 0 0 1-1.015.187zm0 0"/></symbol><symbol overflow="visible" id="h"><path d="M.516-3.094c0 .469.066.903.203 1.297.133.387.332.719.594 1 .257.281.578.5.953.656.375.157.8.235 1.28.235.25 0 .49-.028.72-.078.226-.04.437-.102.625-.188l-.125-.312c-.125.054-.29.101-.485.14a2.95 2.95 0 0 1-.625.063c-.437 0-.824-.063-1.156-.188a2.23 2.23 0 0 1-.844-.578 2.657 2.657 0 0 1-.5-.922 3.961 3.961 0 0 1-.172-1.218c0-.438.055-.829.172-1.172a2.25 2.25 0 0 1 .5-.86c.219-.238.473-.422.766-.547.3-.125.633-.187 1-.187a3.826 3.826 0 0 1 1.125.219l.125-.313a4.027 4.027 0 0 0-.578-.187 3.52 3.52 0 0 0-.64-.094 3.36 3.36 0 0 0-1.25.25 2.662 2.662 0 0 0-.923.672c-.25.293-.445.636-.578 1.031a4.143 4.143 0 0 0-.187 1.281zm0 0"/></symbol><symbol overflow="visible" id="i"><path d="M.203-5.89h1.922V0h.422v-5.89h1.922v-.344H.203zm0 0"/></symbol><symbol overflow="visible" id="j"><path d="M5.078 0h.453L3.094-6.234h-.438L.203 0h.453l.672-1.75h3.078zM2.875-5.75l1.406 3.656H1.47zm0 0"/></symbol><symbol overflow="visible" id="k"><path d="M3.328-.281c-.367 0-.695-.067-.984-.203a2.136 2.136 0 0 1-.735-.579 2.969 2.969 0 0 1-.468-.921 4.199 4.199 0 0 1-.157-1.204c0-.406.051-.773.157-1.109.113-.344.27-.633.468-.875.207-.25.454-.441.735-.578.281-.133.586-.203.922-.203.343 0 .656.074.937.219.29.136.54.336.75.593.207.25.363.555.469.907.113.355.176.75.187 1.187a3.983 3.983 0 0 1-.187 1.14 2.794 2.794 0 0 1-.484.876c-.2.242-.438.43-.72.562-.273.125-.57.188-.89.188zm-.062.375c.414 0 .789-.074 1.125-.219a2.64 2.64 0 0 0 .89-.656c.25-.29.442-.633.578-1.031.133-.395.207-.833.22-1.313a4.249 4.249 0 0 0-.22-1.281 3.014 3.014 0 0 0-.578-1 2.51 2.51 0 0 0-.86-.672 2.754 2.754 0 0 0-1.093-.25c-.43.012-.812.094-1.156.25a2.803 2.803 0 0 0-.89.656c-.25.281-.446.621-.579 1.016a4.367 4.367 0 0 0-.187 1.312c0 .469.062.899.187 1.281.133.387.328.727.578 1.016a2.577 2.577 0 0 0 1.984.89zm0 0"/></symbol><symbol overflow="visible" id="l"><path d="M.89 0h.438v-5.813L3.734-.875h.375l2.422-4.938V0h.422v-6.234h-.64L3.921-1.375l-2.39-4.86H.89zm0 0"/></symbol><symbol overflow="visible" id="m"><path d="M1.313 0v-2.578h1.234c.3 0 .578-.035.828-.11.25-.082.469-.203.656-.359a1.74 1.74 0 0 0 .438-.594c.101-.226.156-.488.156-.78 0-.27-.055-.516-.156-.735a1.567 1.567 0 0 0-.407-.578 1.895 1.895 0 0 0-.64-.36 3.033 3.033 0 0 0-.828-.14H.89V0zm1.234-5.89c.539 0 .941.136 1.203.406.27.261.406.64.406 1.14 0 .242-.039.45-.11.625-.073.168-.214.344-.421.531-.2.18-.543.266-1.031.266H1.313V-5.89zm0 0"/></symbol><symbol overflow="visible" id="n"><path d="M4.078-.344H1.312v-5.89H.891V0h3.187zm0 0"/></symbol><symbol overflow="visible" id="o"><path d="M4.813 0h.578v-6.234h-.422v5.703l-3.5-5.703H.89V0h.437v-5.703zm0 0"/></symbol><symbol overflow="visible" id="p"><path d="M2.14-6.86v5.485c0 .355-.09.625-.265.813-.18.18-.445.265-.797.265C.91-.297.77-.305.656-.328a.993.993 0 0 1-.25-.094l-.125.328c.094.063.207.11.344.14.145.04.29.063.438.063.519 0 .906-.129 1.156-.39.258-.27.39-.66.39-1.172V-6.86zm0 0"/></symbol><symbol overflow="visible" id="q"><path d="M4.828 0v-5.281H4.36v4.11c-.125.105-.261.21-.406.312a4.336 4.336 0 0 1-.437.265c-.157.074-.32.137-.485.188a1.758 1.758 0 0 1-.469.062c-.43 0-.742-.125-.937-.375-.2-.258-.297-.648-.297-1.172v-3.39H.875v3.468c0 .305.023.575.078.813.063.23.156.43.281.594.133.168.301.297.5.39.196.082.43.125.704.125.187 0 .367-.027.546-.078.188-.05.364-.117.532-.203.175-.094.336-.191.484-.297.145-.101.285-.21.422-.328L4.5 0zm0 0"/></symbol><symbol overflow="visible" id="r"><path d="M.984-5.281V0h.454v-4.11a6.03 6.03 0 0 1 .39-.296c.145-.094.297-.18.453-.266.164-.082.332-.144.5-.187.164-.051.332-.082.5-.094.426.012.739.148.938.406.195.25.297.637.297 1.156V0h.468v-3.469c0-.289-.03-.55-.093-.781a1.645 1.645 0 0 0-.297-.61 1.286 1.286 0 0 0-.5-.39c-.2-.094-.434-.14-.703-.14-.2.011-.391.042-.579.093a2.854 2.854 0 0 0-.546.219c-.168.086-.325.18-.47.281-.148.106-.28.211-.405.313l-.079-.797zm0 0"/></symbol><symbol overflow="visible" id="s"><path d="M4.578-2.594c.02-.082.05-.207.094-.375.039-.164.062-.336.062-.515 0-.602-.156-1.067-.468-1.391-.313-.332-.762-.504-1.344-.516a2.5 2.5 0 0 0-.969.22 1.961 1.961 0 0 0-.75.562 2.5 2.5 0 0 0-.484.875 3.89 3.89 0 0 0-.156 1.14c0 .406.054.778.171 1.11.125.324.297.605.516.843.219.243.477.43.781.563.301.125.64.187 1.016.187.101 0 .219-.007.344-.015.125-.012.25-.032.375-.063.132-.023.257-.047.375-.078.125-.031.234-.066.328-.11L4.344-.5c-.094.031-.196.063-.297.094a7.017 7.017 0 0 1-.328.062 2.24 2.24 0 0 1-.313.047H3.11c-.343 0-.64-.05-.89-.156a1.697 1.697 0 0 1-.64-.453 2.117 2.117 0 0 1-.391-.719 3.405 3.405 0 0 1-.125-.969zM2.86-4.984c.446 0 .79.125 1.032.375.238.242.363.605.375 1.093 0 .25-.024.446-.063.579h-3.14c.007-.301.054-.57.14-.813a1.832 1.832 0 0 1 .922-1.078c.207-.102.453-.156.734-.156zm0 0"/></symbol><symbol overflow="visible" id="u"><path d="M.36-.36V0h3.312v-.36L2.359-.374v-6.594h-.046c-.157.032-.325.063-.5.094-.18.023-.356.047-.532.078-.18.024-.351.043-.515.063-.157.023-.305.039-.438.046l.047.329c.238-.008.488-.032.75-.063.27-.039.523-.078.766-.11v6.157zm0 0"/></symbol><symbol overflow="visible" id="v"><path d="M.438-2.14v.359h3.374V0h.47v-1.781h1.062v-.36H4.28v-4.718h-.61zm3.374-4.22v4.22H.922zm0 0"/></symbol><symbol overflow="visible" id="w"><path d="M.422 1.672c.082-.055.176-.121.281-.203.102-.086.203-.188.297-.313a1.7 1.7 0 0 0 .234-.39c.063-.149.094-.313.094-.5a1.18 1.18 0 0 0-.047-.344 1.397 1.397 0 0 0-.093-.297.894.894 0 0 0-.11-.203 4.262 4.262 0 0 1-.094-.14l-.468.124c.082.094.16.219.234.375a1.313 1.313 0 0 1 .047.922C.754.816.695.914.625 1a1.852 1.852 0 0 1-.219.234c-.074.07-.14.13-.203.172zm0 0"/></symbol><symbol overflow="visible" id="x"><path d="M.625 0h4.094v-.375H1.172c.562-.602 1.05-1.133 1.469-1.594.414-.457.757-.867 1.03-1.234.282-.363.485-.695.61-1 .133-.313.203-.625.203-.938 0-.28-.054-.53-.156-.75a1.486 1.486 0 0 0-.422-.562c-.18-.164-.39-.29-.64-.375a2.697 2.697 0 0 0-.844-.125c-.188 0-.367.023-.531.062a3.152 3.152 0 0 0-.47.125 4.886 4.886 0 0 0-.359.157c-.105.054-.187.093-.25.125l.157.312c.062-.031.14-.066.234-.11.094-.038.195-.081.313-.124.125-.04.254-.07.39-.094.145-.031.297-.05.453-.063.54.012.942.149 1.204.407.269.25.406.61.406 1.078 0 .23-.055.476-.156.734-.094.25-.266.547-.516.89-.25.345-.594.767-1.031 1.267A83.23 83.23 0 0 1 .625-.407zm0 0"/></symbol><symbol overflow="visible" id="y"><path d="M3.328-.297a1.88 1.88 0 0 1-.922-.219 1.894 1.894 0 0 1-.672-.656 3.453 3.453 0 0 1-.406-1.016 5.682 5.682 0 0 1-.14-1.312c0-.469.046-.883.14-1.25.094-.375.227-.691.406-.953.188-.27.407-.477.657-.625.257-.145.55-.223.875-.234.343.011.644.093.906.25.27.156.492.375.672.656.176.281.312.62.406 1.015.102.387.156.813.156 1.282 0 .48-.054.906-.156 1.28-.105.376-.25.7-.438.97-.18.261-.39.464-.64.609-.25.137-.531.203-.844.203zM3.266.11a2.324 2.324 0 0 0 1.953-1c.226-.32.398-.695.515-1.125.114-.437.176-.91.188-1.421a5.28 5.28 0 0 0-.203-1.391 3.568 3.568 0 0 0-.5-1.11 2.398 2.398 0 0 0-.813-.75 2.162 2.162 0 0 0-1.078-.265c-.43 0-.808.09-1.14.266-.336.18-.618.43-.844.75a3.455 3.455 0 0 0-.5 1.125c-.117.43-.172.89-.172 1.39 0 .512.055.985.172 1.422.113.43.281.805.5 1.125.226.313.504.559.828.734.32.164.687.25 1.094.25zm0 0"/></symbol><symbol overflow="visible" id="z"><path d="M2.766.11c.25 0 .5-.04.75-.11.257-.07.492-.18.703-.328.218-.145.39-.328.515-.547.133-.219.207-.477.22-.781a1.74 1.74 0 0 0-.141-.61 1.909 1.909 0 0 0-.344-.53 2.68 2.68 0 0 0-.5-.438 4.798 4.798 0 0 0-.594-.36 4.04 4.04 0 0 0 .531-.281c.176-.113.328-.238.453-.375.133-.145.239-.305.313-.484.082-.188.129-.399.14-.641a1.336 1.336 0 0 0-.203-.656 1.787 1.787 0 0 0-.484-.5 2.632 2.632 0 0 0-1.281-.438c-.242.012-.48.059-.719.14a2.46 2.46 0 0 0-.656.329c-.2.148-.36.328-.485.547a1.42 1.42 0 0 0-.171.703c0 .21.035.402.109.578.07.168.172.324.297.469.133.137.285.258.453.36.176.105.363.195.562.265-.199.105-.39.226-.578.36-.187.124-.36.273-.515.437-.149.156-.262.34-.344.547-.086.21-.125.433-.125.671 0 .274.062.516.187.735.125.21.29.383.5.515.207.137.43.243.672.313.25.07.492.11.735.11zM1.28-5.329c0-.164.035-.32.11-.469.07-.144.175-.273.312-.39a1.45 1.45 0 0 1 .469-.266c.176-.063.375-.098.594-.11.226.012.437.047.625.11.195.062.363.152.5.266.132.117.238.25.312.406.082.156.125.324.125.5 0 .199-.043.383-.125.547a1.705 1.705 0 0 1-.328.421 2.107 2.107 0 0 1-.484.329c-.18.093-.36.171-.547.234a3.75 3.75 0 0 1-.64-.234 2.026 2.026 0 0 1-.485-.329 1.447 1.447 0 0 1-.328-.437 1.466 1.466 0 0 1-.11-.578zM4.47-1.562c0 .187-.047.359-.14.515-.087.149-.2.277-.345.39-.148.118-.32.204-.515.266a2.07 2.07 0 0 1-.625.094c-.25 0-.48-.031-.688-.094a1.698 1.698 0 0 1-.547-.265 1.164 1.164 0 0 1-.343-.422 1.236 1.236 0 0 1-.125-.578 1.2 1.2 0 0 1 .14-.563c.094-.187.219-.351.375-.5a2.88 2.88 0 0 1 .516-.406c.195-.113.398-.207.61-.281.206.074.41.168.609.281.207.117.39.25.546.406.157.149.282.32.376.516.101.2.156.414.156.64zm0 0"/></symbol><symbol overflow="visible" id="L"><path d="M5.453 0h.484v-6.86h-.484v3.22h-4v-3.22H.984V0h.47v-3.266h4zm0 0"/></symbol><symbol overflow="visible" id="M"><path d="M4.125-3.547c0-.281-.04-.531-.11-.75a1.436 1.436 0 0 0-.343-.578 1.426 1.426 0 0 0-.563-.375 2.417 2.417 0 0 0-.75-.14 4.31 4.31 0 0 0-.53.062 3.152 3.152 0 0 0-.47.125A4.886 4.886 0 0 0 1-5.047a1.654 1.654 0 0 0-.234.14l.171.298a3.364 3.364 0 0 1 .938-.329c.145-.03.29-.046.438-.046.238 0 .44.039.609.109.176.074.344.21.5.406.164.188.25.516.25.985v.687a6.14 6.14 0 0 0-1.281-.015c-.282.023-.54.074-.766.156a2.185 2.185 0 0 0-.578.328 1.297 1.297 0 0 0-.39.469c-.095.18-.141.375-.141.593 0 .211.035.399.109.563A1.234 1.234 0 0 0 1.406 0c.188.07.383.11.594.11.313 0 .617-.079.922-.235.3-.156.566-.383.797-.688 0 .313.066.547.203.704.133.144.316.218.547.218a.634.634 0 0 0 .25-.046A.785.785 0 0 0 4.89 0l-.063-.297a.19.19 0 0 1-.11.047.804.804 0 0 1-.171.016c-.137 0-.242-.04-.313-.125-.074-.094-.109-.239-.109-.438zM1-1.328c.008-.332.133-.594.375-.781.238-.188.57-.305 1-.36.426-.05.86-.05 1.297 0v1.297c-.2.262-.438.477-.719.64a1.68 1.68 0 0 1-.844.235c-.367 0-.64-.094-.828-.281C1.094-.766 1-1.016 1-1.328zm0 0"/></symbol><symbol overflow="visible" id="N"><path d="M.484-.266c.157.094.368.18.641.25.27.07.582.114.938.125.269 0 .515-.039.734-.109.219-.063.398-.148.547-.266.156-.125.273-.27.36-.437.081-.164.124-.352.124-.563 0-.351-.11-.644-.328-.875-.219-.226-.527-.425-.922-.593l-.484-.188a3.261 3.261 0 0 1-.563-.25 1.505 1.505 0 0 1-.312-.265.744.744 0 0 1-.157-.266 1.009 1.009 0 0 1-.015-.328c0-.282.07-.485.219-.61.144-.132.285-.222.421-.265a1.51 1.51 0 0 1 .5-.078c.145 0 .286.011.422.03.145.024.301.06.47.11.163.043.288.086.374.125l.14-.36a2.493 2.493 0 0 0-.89-.266 7.928 7.928 0 0 0-.469-.046c-.242.012-.46.055-.656.125-.2.063-.375.157-.531.282a1.194 1.194 0 0 0-.36.421A1.215 1.215 0 0 0 .563-4c0 .324.086.594.266.813.188.218.461.402.828.546l.485.188c.218.094.398.187.546.281.157.086.282.172.376.266a.83.83 0 0 1 .218.312c.051.106.078.227.078.36a.832.832 0 0 1-.093.406c-.063.117-.18.234-.344.36-.168.116-.434.171-.797.171-.344 0-.648-.031-.906-.094A2.195 2.195 0 0 1 .64-.625zm0 0"/></symbol><symbol overflow="visible" id="O"><path d="M1.063-2.688c0-.351.046-.664.14-.937.094-.281.227-.52.406-.719.188-.207.41-.363.672-.468.258-.114.547-.172.86-.172.207 0 .394.023.562.062.164.031.3.07.406.11l.157-.329a2.942 2.942 0 0 0-.454-.156c-.199-.05-.417-.082-.656-.094a2.994 2.994 0 0 0-1.062.22 2.174 2.174 0 0 0-.813.562 2.47 2.47 0 0 0-.531.875 3.327 3.327 0 0 0-.188 1.14c0 .406.055.778.172 1.11.125.324.297.605.516.843.227.243.492.43.797.563.312.125.66.187 1.047.187.226 0 .453-.027.672-.078.218-.039.421-.101.609-.187L4.25-.5a2.291 2.291 0 0 1-.531.172 2.474 2.474 0 0 1-.563.031c-.344 0-.648-.05-.906-.156a1.735 1.735 0 0 1-.656-.484 2.102 2.102 0 0 1-.407-.75 3.536 3.536 0 0 1-.125-1zm0 0"/></symbol><symbol overflow="visible" id="P"><path d="M1.64-5.906c-.011-.438.083-.766.282-.985.195-.226.508-.343.937-.343.157 0 .29.015.407.046.113.024.207.04.28.047l.095-.359a2.039 2.039 0 0 0-.329-.078 2.948 2.948 0 0 0-.437-.063 2.196 2.196 0 0 0-.719.141c-.21.086-.386.2-.531.344a1.354 1.354 0 0 0-.328.531c-.074.2-.11.418-.11.656v.719l-.953.047v.297h.954V0h.453v-4.906H3v-.375H1.64zm0 0"/></symbol><symbol overflow="visible" id="Q"><path d="M.984-7.531V0h.454v-7.64zm0 0"/></symbol><symbol overflow="visible" id="R"><path d="M4.547-5.281L2.766-.421.672-5.282H.187L2.531.079c-.117.288-.23.538-.344.75a2.347 2.347 0 0 1-.374.53 1.189 1.189 0 0 1-.422.297 1.36 1.36 0 0 1-.532.094 1.441 1.441 0 0 1-.515-.094l-.125.375c.07.031.16.055.265.078.114.02.239.032.375.032.258.007.489-.028.688-.11.195-.074.379-.199.547-.375.164-.18.328-.414.484-.703.156-.293.317-.652.485-1.078L5.03-5.281zm0 0"/></symbol><symbol overflow="visible" id="S"><path d="M2.89.11c.352 0 .676-.07.97-.204.288-.133.538-.32.75-.562.218-.239.382-.531.5-.875a3.67 3.67 0 0 0 .171-1.157c0-.406-.058-.769-.172-1.093a2.672 2.672 0 0 0-.484-.86 1.96 1.96 0 0 0-.734-.546 2.496 2.496 0 0 0-.938-.204 2.53 2.53 0 0 0-.984.22 1.961 1.961 0 0 0-.75.562 2.5 2.5 0 0 0-.485.875 3.53 3.53 0 0 0-.171 1.14c0 .406.05.778.156 1.11.113.324.27.605.469.843.207.243.453.43.734.563.289.125.613.187.969.187zm.063-.407c-.293 0-.558-.05-.797-.156a1.685 1.685 0 0 1-.594-.484 2.052 2.052 0 0 1-.375-.75 3.536 3.536 0 0 1-.125-1c0-.352.04-.665.125-.938.083-.281.204-.52.36-.719a1.65 1.65 0 0 1 .578-.468c.227-.114.484-.172.766-.172.289 0 .55.058.78.171.227.106.427.262.595.47.164.21.289.464.375.765.093.293.14.621.14.984a3 3 0 0 1-.14.953 2.342 2.342 0 0 1-.36.735c-.156.199-.351.351-.578.453a1.78 1.78 0 0 1-.75.156zm0 0"/></symbol><symbol overflow="visible" id="T"><path d="M.984-5.281V0h.454v-4.11a3.69 3.69 0 0 1 .375-.296c.144-.094.296-.18.453-.266.156-.082.312-.144.468-.187.164-.051.329-.082.485-.094.414.012.719.148.906.406.195.25.297.637.297 1.156V0h.453v-4.11a3.69 3.69 0 0 1 .375-.296c.145-.094.297-.18.453-.266.156-.082.313-.144.469-.187.156-.051.316-.082.484-.094.407.012.703.148.89.406.196.25.298.637.298 1.156V0h.468v-3.469c0-.289-.03-.55-.093-.781a1.645 1.645 0 0 0-.297-.61 1.324 1.324 0 0 0-.484-.39 1.495 1.495 0 0 0-.672-.14 2.434 2.434 0 0 0-1.032.28c-.343.18-.68.415-1 .704a1.392 1.392 0 0 0-.515-.719c-.23-.164-.524-.254-.875-.266-.2.012-.39.043-.578.094-.18.055-.352.125-.516.219a3.916 3.916 0 0 0-.86.594l-.077-.797zm0 0"/></symbol><symbol overflow="visible" id="U"><path d="M.984-5.281v7.328h.454V-.328c.113.074.234.137.359.187.125.055.281.106.469.157.187.062.39.093.609.093.352 0 .688-.062 1-.187.313-.133.582-.32.813-.563.238-.25.425-.546.562-.89.133-.344.203-.727.203-1.157 0-.394-.055-.753-.156-1.078a2.613 2.613 0 0 0-.453-.859 1.96 1.96 0 0 0-.735-.547 2.406 2.406 0 0 0-.953-.219c-.156 0-.32.024-.484.063a2.348 2.348 0 0 0-.469.187 2.415 2.415 0 0 0-.453.282 1.956 1.956 0 0 0-.36.359l-.077-.781zm.454 1.172c.07-.094.16-.192.265-.297.113-.102.242-.196.39-.282.145-.093.302-.164.47-.218a1.69 1.69 0 0 1 .5-.078c.312 0 .582.058.812.171.238.106.438.262.594.47.164.21.289.46.375.75.082.292.125.624.125 1a3.09 3.09 0 0 1-.172.952 2.043 2.043 0 0 1-.422.735c-.18.199-.387.351-.625.453a1.974 1.974 0 0 1-.797.156c-.293 0-.562-.035-.812-.11a2.606 2.606 0 0 1-.704-.327zm0 0"/></symbol><symbol overflow="visible" id="V"><path d="M1.64-6.547l-.421.094-.032 1.203-.953.047v.297h.954v3.625c0 .468.125.82.375 1.047.25.23.609.343 1.078.343.156 0 .304-.015.453-.046.156-.024.281-.055.375-.094L3.39-.375a2.925 2.925 0 0 1-.313.063c-.125.011-.25.015-.375.015-.367.012-.637-.066-.812-.234-.168-.176-.246-.469-.235-.875v-3.5h1.625v-.375h-1.64zm0 0"/></symbol><symbol overflow="visible" id="W"><path d="M5.047 0v-7.64l-.469.109v2.578a3.277 3.277 0 0 0-.64-.281 6.15 6.15 0 0 0-.47-.11 1.213 1.213 0 0 0-.312-.047 2.841 2.841 0 0 0-1.031.22 2.342 2.342 0 0 0-.813.562c-.242.242-.43.53-.562.875a3.249 3.249 0 0 0-.188 1.14c0 .406.051.778.157 1.11.101.324.254.605.453.843.195.243.437.43.719.563.289.125.617.187.984.187.145 0 .297-.023.453-.062.164-.043.328-.098.485-.172.156-.07.3-.16.437-.266a1.87 1.87 0 0 0 .375-.39L4.719 0zm-.469-1.172c-.074.106-.168.211-.281.313-.117.105-.246.199-.39.28a1.907 1.907 0 0 1-.954.282c-.625 0-1.101-.207-1.422-.625-.312-.414-.468-1.004-.468-1.765 0-.344.046-.657.14-.938.094-.281.227-.52.406-.719a1.942 1.942 0 0 1 1.453-.64c.29 0 .563.043.813.125.25.074.484.18.703.312zm0 0"/></symbol><symbol overflow="visible" id="X"><path d="M.984-7.531V0h.454v-4.11a6.03 6.03 0 0 1 .39-.296c.145-.094.297-.18.453-.266.164-.082.332-.144.5-.187.164-.051.332-.082.5-.094.426.012.739.148.938.406.195.25.297.637.297 1.156V0h.468v-3.469c0-.289-.03-.55-.093-.781a1.645 1.645 0 0 0-.297-.61 1.286 1.286 0 0 0-.5-.39c-.2-.094-.434-.14-.703-.14a2.82 2.82 0 0 0-.563.093c-.18.043-.351.106-.515.188-.168.086-.325.18-.47.28a4.193 4.193 0 0 0-.405.298v-3.11zm0 0"/></symbol><symbol overflow="visible" id="aw"><path d="M.563-3.422c0 .524.07 1 .218 1.438.156.43.375.796.656 1.109.29.313.641.559 1.047.734.414.164.891.25 1.422.25.27 0 .531-.03.781-.093.258-.051.489-.118.688-.204L5.25-.546a3.378 3.378 0 0 1-.547.172c-.21.055-.433.078-.672.078-.492 0-.918-.07-1.281-.219a2.605 2.605 0 0 1-.922-.64 2.734 2.734 0 0 1-.562-1.016A4.381 4.381 0 0 1 1.078-3.5c0-.488.063-.922.188-1.297a2.551 2.551 0 0 1 1.406-1.547 3.17 3.17 0 0 1 1.094-.218c.25.011.476.042.687.093.219.055.399.106.547.157l.14-.344a5.62 5.62 0 0 0-.624-.203 3.325 3.325 0 0 0-.72-.11 3.511 3.511 0 0 0-1.358.282c-.399.18-.735.43-1.016.75a3.125 3.125 0 0 0-.64 1.125 4.22 4.22 0 0 0-.22 1.39zm0 0"/></symbol><symbol overflow="visible" id="ax"><path d="M1-2.563h2.531v-.359H1zm0 0"/></symbol><symbol overflow="visible" id="ay"><path d="M.984-5.281V0h.454v-4.078c.101-.082.218-.164.343-.25a3.52 3.52 0 0 1 .547-.297 3.23 3.23 0 0 1 .875-.266v-.484c-.336.055-.621.14-.86.266a3.685 3.685 0 0 0-.577.359c-.137.105-.262.21-.375.313l-.079-.844zm0 0"/></symbol><symbol overflow="visible" id="az"><path d="M7.563-5.281L6-.5 4.422-5.234h-.469L2.375-.5.797-5.281H.328L2.141 0h.484l1.563-4.625L5.75 0h.484l1.797-5.281zm0 0"/></symbol><symbol overflow="visible" id="aA"><path d="M.984-5.281V0h.454v-5.281zm-.14-1.657c0 .106.031.188.094.25.07.063.156.102.25.11a.363.363 0 0 0 .265-.11.472.472 0 0 0 .125-.296.386.386 0 0 0-.125-.25.291.291 0 0 0-.219-.11.353.353 0 0 0-.28.125.38.38 0 0 0-.11.282zm0 0"/></symbol><symbol overflow="visible" id="A"><path d="M14.719-8.969H9.672V-8h3.797v6.5c-.324.168-.781.324-1.375.469a8.647 8.647 0 0 1-2 .234c-1.188 0-2.235-.191-3.14-.578a5.887 5.887 0 0 1-2.266-1.688C4.082-3.8 3.625-4.687 3.313-5.719 3-6.758 2.848-7.937 2.858-9.25c0-1.281.172-2.414.516-3.406.352-1 .848-1.836 1.484-2.516a6.295 6.295 0 0 1 2.329-1.562c.906-.352 1.921-.536 3.046-.547.75.023 1.438.11 2.063.265.625.149 1.113.282 1.469.407l.39-.922c-.18-.07-.402-.157-.672-.25a9.694 9.694 0 0 0-.906-.266 11.284 11.284 0 0 0-1.078-.203 9.013 9.013 0 0 0-1.172-.11c-1.418.012-2.68.25-3.781.72-1.106.468-2.031 1.124-2.781 1.968-.743.836-1.305 1.82-1.688 2.953C1.691-11.582 1.5-10.344 1.5-9c0 1.367.18 2.621.547 3.766.363 1.136.906 2.117 1.625 2.937a7.432 7.432 0 0 0 2.656 1.89c1.04.446 2.227.673 3.563.673.476 0 .953-.032 1.421-.094.47-.055 1.02-.164 1.657-.328a5.806 5.806 0 0 0 1.75-.797zm0 0"/></symbol><symbol overflow="visible" id="B"><path d="M12.063-6.844c.07-.218.156-.539.25-.968.101-.438.16-.891.171-1.36-.011-1.594-.43-2.82-1.25-3.687-.824-.875-1.996-1.317-3.515-1.329-.95 0-1.805.18-2.563.532a5.775 5.775 0 0 0-1.968 1.5c-.555.648-.977 1.422-1.266 2.328-.281.898-.422 1.89-.422 2.984 0 1.074.148 2.047.453 2.922a6.667 6.667 0 0 0 1.328 2.25A5.697 5.697 0 0 0 5.344-.234c.8.332 1.691.5 2.672.5.28 0 .586-.016.921-.047.344-.024.68-.063 1.016-.125.344-.063.664-.133.969-.219.312-.094.598-.191.86-.297l-.345-.89c-.23.085-.484.164-.765.234-.274.062-.555.121-.844.172a11.31 11.31 0 0 1-.86.094 9.377 9.377 0 0 1-.78.03c-.887 0-1.668-.132-2.344-.405a4.39 4.39 0 0 1-1.672-1.204A5.526 5.526 0 0 1 3.14-4.297c-.23-.75-.352-1.598-.36-2.547zM7.53-13.14c1.176 0 2.082.325 2.719.97.645.648.977 1.616 1 2.905 0 .649-.059 1.149-.172 1.5H2.797c.031-.77.156-1.476.375-2.125.226-.656.55-1.222.969-1.703a4.61 4.61 0 0 1 1.453-1.125C6.156-13 6.8-13.14 7.53-13.14zm0 0"/></symbol><symbol overflow="visible" id="C"><path d="M7.61.266c.945 0 1.804-.172 2.577-.516a5.8 5.8 0 0 0 1.985-1.484c.55-.633.976-1.399 1.281-2.297.3-.907.457-1.922.469-3.047-.012-1.063-.168-2.024-.469-2.89-.293-.864-.71-1.61-1.25-2.235a5.61 5.61 0 0 0-1.937-1.469c-.743-.344-1.563-.515-2.47-.515-.968 0-1.839.18-2.609.53a5.721 5.721 0 0 0-1.984 1.5c-.555.65-.976 1.423-1.265 2.329-.293.898-.438 1.89-.438 2.984 0 1.074.14 2.047.422 2.922a6.81 6.81 0 0 0 1.234 2.25A5.442 5.442 0 0 0 5.094-.234c.758.332 1.597.5 2.515.5zm.187-1.047c-.781 0-1.48-.14-2.094-.422a4.206 4.206 0 0 1-1.578-1.25c-.438-.55-.773-1.211-1-1.985-.219-.769-.328-1.648-.328-2.64 0-.926.11-1.758.328-2.5.227-.738.55-1.375.969-1.906a4.309 4.309 0 0 1 1.531-1.22 4.47 4.47 0 0 1 1.984-.437c.758 0 1.446.149 2.063.438.613.293 1.14.715 1.578 1.265.438.543.77 1.204 1 1.985.238.781.36 1.652.36 2.61 0 .937-.118 1.78-.344 2.53-.23.75-.559 1.391-.985 1.922-.418.524-.93.922-1.531 1.204a4.615 4.615 0 0 1-1.953.406zm0 0"/></symbol><symbol overflow="visible" id="D"><path d="M2.578-13.922L2.594 0h1.219v-10.734c.257-.227.554-.457.89-.688.344-.238.817-.504 1.422-.797.602-.289 1.379-.508 2.328-.656v-1.313c-.875.149-1.633.391-2.265.735-.625.336-1.125.64-1.5.922-.368.273-.7.558-1 .86l-.235-2.25zm0 0"/></symbol><symbol overflow="visible" id="E"><path d="M6.125-4.547a4.93 4.93 0 0 0 1.906-.36 4.992 4.992 0 0 0 1.563-1.03A4.72 4.72 0 0 0 10.656-7.5a4.992 4.992 0 0 0 .406-1.922 5.354 5.354 0 0 0-.296-1.719A4.5 4.5 0 0 0 10-12.53c.344-.227.781-.39 1.313-.485a5.338 5.338 0 0 1 1.656-.046v-1.063a6.02 6.02 0 0 0-1.188 0 5.258 5.258 0 0 0-1.219.281c-.449.149-.828.387-1.14.719a5.117 5.117 0 0 0-1.438-.781 4.869 4.869 0 0 0-1.656-.281c-.7 0-1.344.132-1.937.39a5.06 5.06 0 0 0-1.579 1.047c-.449.45-.796.965-1.046 1.547a4.893 4.893 0 0 0-.36 1.89c0 1.126.266 2.075.797 2.844a4.274 4.274 0 0 0 2.172 1.625c-.23.149-.45.305-.656.469-.211.168-.434.402-.672.703-.242.305-.367.7-.375 1.188.008.48.098.84.265 1.078.176.23.336.402.485.515.144.118.3.204.469.266a6.765 6.765 0 0 0-1.016.594 4.54 4.54 0 0 0-.86.75c-.25.289-.449.597-.593.922-.137.332-.203.68-.203 1.046 0 .52.125.985.375 1.391.258.406.629.742 1.11 1.016.487.281 1.062.488 1.718.625.664.133 1.41.203 2.234.203.926 0 1.758-.094 2.5-.281.75-.188 1.39-.461 1.922-.813.531-.355.938-.773 1.219-1.25.281-.469.426-.992.437-1.562-.011-.543-.132-1.016-.359-1.422a3 3 0 0 0-.922-.985A4.305 4.305 0 0 0 10.141-1a5.606 5.606 0 0 0-1.5-.203H5.5c-.563 0-.984-.125-1.266-.375-.273-.258-.406-.613-.406-1.063 0-.363.145-.718.438-1.062.3-.344.66-.64 1.078-.89.25.042.508.058.781.046zm.094-1a3.79 3.79 0 0 1-1.453-.266 3.312 3.312 0 0 1-1.157-.78 3.619 3.619 0 0 1-.78-1.235c-.18-.488-.267-1.04-.267-1.656 0-.52.094-1 .282-1.438.187-.445.445-.836.781-1.172.332-.344.723-.61 1.172-.797.445-.187.93-.285 1.453-.296.5 0 .969.101 1.406.296a3.546 3.546 0 0 1 1.953 2.032 4.39 4.39 0 0 1 .282 1.609c0 .531-.102 1.023-.297 1.469A3.604 3.604 0 0 1 7.64-5.828a3.65 3.65 0 0 1-1.422.281zm.75 10.422c-1.469 0-2.59-.203-3.36-.61-.773-.406-1.156-1.011-1.156-1.812 0-.305.055-.59.172-.86.125-.261.29-.5.5-.718.207-.219.441-.414.703-.578.27-.168.55-.317.844-.453h3.766c.968.011 1.718.207 2.25.594.53.394.8.976.812 1.75a2.078 2.078 0 0 1-.344 1.093c-.219.332-.531.614-.937.844a5.033 5.033 0 0 1-1.438.547 7.755 7.755 0 0 1-1.812.203zm0 0"/></symbol><symbol overflow="visible" id="F"><path d="M2.578-13.922V0h1.235v-13.922zm-.344-4.375a.93.93 0 0 0 .25.672c.176.18.391.273.641.281.281 0 .52-.097.719-.297.195-.195.297-.457.297-.78a.905.905 0 0 0-.266-.657.934.934 0 0 0-.625-.281 1.028 1.028 0 0 0-.734.312c-.188.2-.282.45-.282.75zm0 0"/></symbol><symbol overflow="visible" id="H"><path d="M6.86 0h1.234v-7.063l6.219-11.015H13.03L7.484-8.094l-5.578-9.984H.61L6.86-7.063zm0 0"/></symbol><symbol overflow="visible" id="I"><path d="M10.89-9.36a6.687 6.687 0 0 0-.312-1.984 4.048 4.048 0 0 0-.89-1.515 3.989 3.989 0 0 0-1.47-.985c-.585-.226-1.257-.344-2.015-.344-.48 0-.945.047-1.39.141-.438.094-.84.211-1.204.344a7.739 7.739 0 0 0-.953.422c-.273.136-.48.25-.625.344l.453.796c.332-.207.739-.39 1.22-.546.476-.157.894-.27 1.25-.344.362-.07.741-.11 1.14-.11.644 0 1.191.094 1.64.282.457.187.895.543 1.313 1.062.426.512.633 1.387.625 2.625v1.813a15.6 15.6 0 0 0-3.375-.063 8.302 8.302 0 0 0-2 .438c-.594.218-1.117.5-1.563.843A3.497 3.497 0 0 0 1.72-4.92c-.242.468-.36 1-.36 1.593 0 .543.094 1.039.282 1.484.195.438.472.82.828 1.14.363.313.781.556 1.25.72.476.164.992.25 1.547.25.82 0 1.629-.204 2.421-.61.79-.414 1.493-1.015 2.11-1.797 0 .813.176 1.418.531 1.813.363.394.848.594 1.453.594.25 0 .473-.032.672-.094.195-.055.336-.106.422-.156l-.156-.797a1.102 1.102 0 0 1-.297.125 1.832 1.832 0 0 1-.438.047c-.343.011-.617-.102-.812-.344-.188-.238-.281-.617-.281-1.14zM2.657-3.5c.008-.883.328-1.57.953-2.063.633-.5 1.508-.816 2.625-.953a15.328 15.328 0 0 1 3.438.016v3.406a6.514 6.514 0 0 1-1.875 1.688c-.711.418-1.45.625-2.219.625-.96 0-1.687-.242-2.187-.735-.493-.5-.735-1.16-.735-1.984zm0 0"/></symbol><symbol overflow="visible" id="J"><path d="M2.578-13.922V0h1.235v-10.828a7.9 7.9 0 0 1 1.015-.797c.383-.25.785-.477 1.203-.688.426-.207.86-.378 1.297-.515a4.585 4.585 0 0 1 1.313-.203c1.125 0 1.953.344 2.484 1.031.531.68.797 1.695.797 3.047V0h1.219v-9.156c0-.77-.09-1.461-.266-2.078-.168-.625-.422-1.149-.766-1.579a3.46 3.46 0 0 0-1.312-1.015c-.531-.238-1.149-.36-1.844-.36-.531 0-1.043.075-1.531.22A7.279 7.279 0 0 0 6-13.407c-.45.23-.871.484-1.266.765-.398.282-.75.559-1.062.829l-.219-2.11zm0 0"/></symbol><symbol overflow="visible" id="K"><path d="M11.984-13.922L6.922-1.359 1.875-13.922H.609L6.313 0h1.234l5.687-13.922zm0 0"/></symbol><symbol overflow="visible" id="Y"><path d="M1.953 0h.953v-12.797l5.328 10.86h.797l5.344-10.86V0h.938v-13.719H13.89L8.64-3.047 3.39-13.719H1.953zm0 0"/></symbol><symbol overflow="visible" id="Z"><path d="M5.781.203c.707 0 1.352-.133 1.938-.39a4.383 4.383 0 0 0 1.515-1.125c.414-.489.739-1.07.97-1.75.226-.688.347-1.458.358-2.313a6.993 6.993 0 0 0-.359-2.188 5 5 0 0 0-.953-1.703 4.228 4.228 0 0 0-1.469-1.109 4.449 4.449 0 0 0-1.875-.39c-.73 0-1.386.136-1.968.406a4.355 4.355 0 0 0-1.5 1.14 5.21 5.21 0 0 0-.97 1.766c-.218.68-.327 1.433-.327 2.266 0 .812.101 1.554.312 2.218.219.656.531 1.227.938 1.703.414.47.906.836 1.468 1.094.57.25 1.211.375 1.922.375zm.125-.797c-.593 0-1.125-.101-1.593-.312a3.318 3.318 0 0 1-1.188-.953 4.104 4.104 0 0 1-.75-1.5c-.168-.594-.25-1.266-.25-2.016 0-.695.082-1.328.25-1.89.164-.563.41-1.04.734-1.438.32-.406.707-.719 1.157-.938a3.4 3.4 0 0 1 1.515-.328c.57 0 1.086.117 1.547.344.469.219.867.54 1.203.953.332.406.586.906.766 1.5.176.594.27 1.258.281 1.984a6.904 6.904 0 0 1-.281 1.922 4.315 4.315 0 0 1-.735 1.454c-.312.398-.699.699-1.156.906-.46.21-.96.312-1.5.312zm0 0"/></symbol><symbol overflow="visible" id="aa"><path d="M1.953-15.063v14.25c.219.157.461.297.734.422.282.125.579.235.891.329.313.093.629.16.953.203.332.039.649.062.953.062.77 0 1.473-.125 2.11-.375a4.437 4.437 0 0 0 1.625-1.125 5.29 5.29 0 0 0 1.062-1.766c.258-.687.39-1.457.39-2.312 0-.79-.12-1.516-.358-2.172a5.295 5.295 0 0 0-1-1.719 4.574 4.574 0 0 0-1.5-1.109 4.383 4.383 0 0 0-1.844-.39c-.5 0-1.016.078-1.547.234a6.737 6.737 0 0 0-1.531.672v-5.407zm7.734 9.876a6.229 6.229 0 0 1-.312 1.921 4.094 4.094 0 0 1-.828 1.454c-.367.398-.805.699-1.313.906-.5.21-1.058.312-1.671.312-.512 0-.977-.047-1.391-.14a6.475 6.475 0 0 1-1.281-.47v-7.921h.015c.438-.258.906-.46 1.406-.61a5.04 5.04 0 0 1 1.485-.234c.594 0 1.129.117 1.61.344.476.219.882.54 1.218.953.344.406.602.906.781 1.5.188.594.281 1.258.281 1.984zm0 0"/></symbol><symbol overflow="visible" id="ab"><path d="M1.953-10.563V0h.938v-10.563zm-.266-3.328c0 .211.063.383.188.516a.713.713 0 0 0 1.031 0 .824.824 0 0 0 .235-.61c0-.195-.07-.359-.204-.484a.73.73 0 0 0-.468-.219.787.787 0 0 0-.563.25.736.736 0 0 0-.218.547zm0 0"/></symbol><symbol overflow="visible" id="ac"><path d="M1.953-15.063V0h.938v-15.266zm0 0"/></symbol><symbol overflow="visible" id="ad"><path d="M9.156-5.188c.051-.175.114-.425.188-.75.07-.32.113-.664.125-1.03-.012-1.208-.328-2.141-.953-2.798-.625-.656-1.512-.988-2.657-1-.718 0-1.37.137-1.953.407a4.41 4.41 0 0 0-1.484 1.14 5.052 5.052 0 0 0-.953 1.766c-.219.68-.328 1.433-.328 2.266 0 .812.113 1.554.343 2.218.239.656.57 1.227 1 1.703.438.47.957.836 1.563 1.094.613.25 1.289.375 2.031.375.219 0 .453-.012.703-.031.258-.024.516-.059.766-.11a7.58 7.58 0 0 0 .734-.156 9.92 9.92 0 0 0 .656-.218L8.672-1c-.168.074-.36.137-.578.188-.211.042-.422.085-.64.125-.22.03-.438.058-.657.078-.211.011-.406.015-.594.015-.668 0-1.258-.101-1.766-.312a3.289 3.289 0 0 1-1.28-.906A4.05 4.05 0 0 1 2.39-3.25c-.18-.57-.274-1.219-.282-1.938zM5.72-9.968c.894 0 1.582.245 2.062.734.489.492.739 1.226.75 2.203 0 .492-.043.87-.125 1.14H2.125c.02-.582.113-1.117.281-1.609.176-.5.422-.93.735-1.297.312-.363.68-.648 1.109-.86.426-.206.914-.312 1.469-.312zm0 0"/></symbol><symbol overflow="visible" id="af"><path d="M18.61-13.719L14.624-1.125l-4.047-12.031h-.922L5.625-1.125l-4-12.594H.672L5.109 0h1.047l3.969-11.938L14.094 0h1.031l4.453-13.719zm0 0"/></symbol><symbol overflow="visible" id="ag"><path d="M1.031-.703c.375.242.89.453 1.547.64.656.176 1.39.266 2.203.266.664 0 1.27-.078 1.813-.234A3.9 3.9 0 0 0 7.969-.75c.383-.32.676-.695.875-1.125a3.54 3.54 0 0 0 .328-1.453 3.13 3.13 0 0 0-.828-2.125C7.8-6.055 7.03-6.563 6.03-6.97L4.72-7.5a7.21 7.21 0 0 1-1.282-.594 3.092 3.092 0 0 1-.796-.672c-.2-.238-.344-.5-.438-.78a3.241 3.241 0 0 1-.11-1.017c0-.374.071-.718.22-1.03.156-.321.374-.595.656-.813.281-.219.601-.39.969-.516a3.878 3.878 0 0 1 1.234-.187c.601.011 1.16.078 1.672.203.52.117.972.242 1.36.375l.28-.719a9.12 9.12 0 0 0-1.5-.484 7.29 7.29 0 0 0-1.64-.188c-.625 0-1.2.09-1.719.266-.523.18-.969.422-1.344.734a3.331 3.331 0 0 0-.875 1.11c-.199.417-.297.87-.297 1.359 0 .875.239 1.601.72 2.172.487.574 1.16 1.023 2.015 1.344l1.297.53c.55.231 1.02.462 1.406.688.383.219.695.453.937.703.239.243.414.508.532.797.113.293.171.621.171.985a2.604 2.604 0 0 1-.25 1.078c-.148.312-.433.648-.859 1-.43.355-1.152.539-2.172.547-.71 0-1.367-.07-1.968-.22a6.415 6.415 0 0 1-1.594-.593zm0 0"/></symbol><symbol overflow="visible" id="ah"><path d="M1.953-10.563V4.079h.938V-.656c.226.148.46.277.703.39.25.106.562.211.937.313a4.68 4.68 0 0 0 1.203.156c.72 0 1.391-.125 2.016-.375a4.595 4.595 0 0 0 1.64-1.125 5.399 5.399 0 0 0 1.11-1.75c.27-.687.406-1.46.406-2.328 0-.79-.105-1.516-.312-2.172a5.113 5.113 0 0 0-.906-1.703 4.102 4.102 0 0 0-1.454-1.11c-.562-.269-1.203-.406-1.921-.406a3.85 3.85 0 0 0-.954.125c-.324.086-.64.204-.953.36-.312.148-.61.328-.89.547A4.084 4.084 0 0 0 2.78-9l-.156-1.563zm.938 2.344c.125-.195.3-.394.53-.594.227-.207.485-.394.767-.562.28-.176.585-.316.921-.422a3.174 3.174 0 0 1 1.032-.172c.613 0 1.156.11 1.625.328.468.22.859.54 1.171.954.32.417.567.921.735 1.515a7.35 7.35 0 0 1 .25 1.984c-.012.711-.121 1.344-.328 1.907a4.31 4.31 0 0 1-.844 1.453 3.755 3.755 0 0 1-1.25.922 3.92 3.92 0 0 1-1.594.312c-.574 0-1.11-.07-1.61-.219a6.03 6.03 0 0 1-1.405-.64zm0 0"/></symbol><symbol overflow="visible" id="ai"><path d="M2.125-5.375c0-.695.094-1.328.281-1.89.196-.563.477-1.04.844-1.438.363-.406.8-.719 1.313-.938a4.427 4.427 0 0 1 1.734-.328c.406 0 .77.043 1.094.125.332.074.613.153.843.235l.297-.672c-.219-.114-.527-.219-.922-.313a5.583 5.583 0 0 0-1.28-.172c-.782 0-1.493.137-2.126.407a4.823 4.823 0 0 0-1.64 1.14A5.08 5.08 0 0 0 1.5-7.453c-.242.68-.36 1.433-.36 2.266 0 .812.114 1.554.344 2.218a4.881 4.881 0 0 0 1.032 1.703c.445.47.976.836 1.593 1.094.625.25 1.32.375 2.094.375a6.48 6.48 0 0 0 1.328-.14A6.561 6.561 0 0 0 8.75-.314l-.266-.671a5.18 5.18 0 0 1-1.03.296 5.09 5.09 0 0 1-1.126.094c-.687 0-1.297-.101-1.828-.312a3.394 3.394 0 0 1-1.313-.953 4.265 4.265 0 0 1-.812-1.5c-.18-.594-.262-1.266-.25-2.016zm0 0"/></symbol><symbol overflow="visible" id="aj"><path d="M8.266-7.094a4.905 4.905 0 0 0-.25-1.515 3.131 3.131 0 0 0-.672-1.157 2.833 2.833 0 0 0-1.11-.734 4.181 4.181 0 0 0-1.53-.266c-.368 0-.716.04-1.048.11-.336.074-.64.164-.922.265a4.61 4.61 0 0 0-.718.313c-.211.105-.371.195-.485.265l.36.594c.25-.156.554-.289.921-.406.364-.125.68-.21.954-.266.27-.05.554-.078.859-.078.488 0 .906.074 1.25.219.344.137.672.402.984.797.32.398.477 1.058.47 1.984v1.39a11.185 11.185 0 0 0-2.548-.046 6.3 6.3 0 0 0-1.515.328c-.461.168-.856.383-1.188.64-.336.25-.594.56-.781.923-.18.355-.266.757-.266 1.203 0 .418.07.797.219 1.14.145.336.352.621.625.86.281.242.598.422.953.547.352.125.738.187 1.156.187.633 0 1.25-.156 1.844-.469a4.974 4.974 0 0 0 1.61-1.359c0 .617.132 1.074.406 1.375.27.3.633.453 1.093.453.188 0 .352-.023.5-.062.157-.043.266-.086.329-.125l-.125-.61a.799.799 0 0 1-.22.094 1.376 1.376 0 0 1-.327.031c-.262.012-.465-.07-.61-.25-.148-.176-.218-.469-.218-.875zm-6.25 4.438c0-.664.238-1.188.718-1.563.489-.375 1.157-.613 2-.718a11.995 11.995 0 0 1 2.594 0v2.593a4.86 4.86 0 0 1-1.406 1.281 3.339 3.339 0 0 1-1.688.47c-.73 0-1.28-.188-1.656-.563-.375-.375-.562-.875-.562-1.5zm0 0"/></symbol><symbol overflow="visible" id="ak"><path d="M.984-.547c.29.2.711.375 1.266.531.55.145 1.18.22 1.89.22.54 0 1.032-.063 1.47-.188a3.138 3.138 0 0 0 1.109-.547c.3-.239.531-.524.687-.86.164-.343.25-.722.25-1.14 0-.707-.226-1.29-.672-1.75-.437-.469-1.054-.86-1.843-1.172l-.938-.39a6.285 6.285 0 0 1-1.125-.5 2.817 2.817 0 0 1-.64-.516 1.555 1.555 0 0 1-.282-.547 2.439 2.439 0 0 1-.078-.657c.008-.55.16-.957.453-1.218.301-.258.594-.438.875-.531a2.83 2.83 0 0 1 .969-.157c.29 0 .57.024.844.063.281.043.586.117.922.219.343.093.601.171.78.234l.282-.719a8.162 8.162 0 0 0-1.016-.344c-.23-.062-.492-.117-.78-.171a5.4 5.4 0 0 0-.923-.079c-.48 0-.921.07-1.328.204a3.28 3.28 0 0 0-1.062.578c-.305.25-.54.543-.703.875-.168.336-.25.703-.25 1.109-.012.637.164 1.18.53 1.625.364.45.915.813 1.657 1.094l.938.375c.445.187.82.37 1.125.547.312.18.562.359.75.546.195.188.343.391.437.61.094.219.14.465.14.734a1.877 1.877 0 0 1-.202.813c-.118.23-.34.465-.672.703-.324.242-.852.36-1.578.36-.688 0-1.293-.067-1.813-.204-.512-.144-.898-.297-1.156-.453zm0 0"/></symbol><symbol overflow="visible" id="al"><path d="M3.281-13.094l-.844.188-.062 2.39-1.906.11v.594h1.906v7.25c0 .949.25 1.652.75 2.109.5.45 1.223.664 2.172.656.289 0 .586-.027.89-.078.301-.043.555-.105.766-.188l-.172-.703a3.446 3.446 0 0 1-.625.125c-.25.032-.496.047-.734.047-.75.024-1.293-.14-1.625-.484-.336-.344-.5-.922-.5-1.734v-7h3.265v-.75h-3.28zm0 0"/></symbol><symbol overflow="visible" id="am"><path d="M5.781 0h.703v-7.484h-.53v6.859l-4.188-6.86h-.704V0h.516v-6.844zm0 0"/></symbol><symbol overflow="visible" id="ao"><path d="M6.094 0h.547L3.703-7.484h-.515L.25 0h.547l.812-2.11h3.672zm-2.64-6.89L5.14-2.5H1.75zm0 0"/></symbol><symbol overflow="visible" id="ap"><path d="M3.984-.328a2.59 2.59 0 0 1-1.156-.25 2.58 2.58 0 0 1-.89-.703c-.25-.301-.438-.664-.563-1.094a5.28 5.28 0 0 1-.188-1.453c0-.488.063-.938.188-1.344.133-.406.32-.754.563-1.047.25-.289.539-.515.875-.672.332-.164.695-.25 1.093-.25.426 0 .813.086 1.156.25.344.168.633.407.875.72.25.304.442.667.579 1.093.132.43.203.902.203 1.422 0 .5-.07.953-.203 1.36a3.28 3.28 0 0 1-.579 1.062 2.463 2.463 0 0 1-.859.671c-.336.157-.7.235-1.094.235zm-.078.437c.5 0 .953-.09 1.36-.265a3.178 3.178 0 0 0 1.078-.797c.3-.344.531-.75.687-1.219.164-.476.25-1.004.25-1.578 0-.563-.086-1.07-.25-1.531A3.685 3.685 0 0 0 6.36-6.5a3.027 3.027 0 0 0-1.046-.797 3.337 3.337 0 0 0-1.329-.297c-.5.012-.96.11-1.375.297a3.158 3.158 0 0 0-1.062.797 3.325 3.325 0 0 0-.688 1.219A4.932 4.932 0 0 0 .625-3.72c0 .563.078 1.078.234 1.547.157.469.38.875.672 1.219.301.336.649.594 1.047.781.406.188.848.281 1.328.281zm0 0"/></symbol><symbol overflow="visible" id="aq"><path d="M2.828 0c.52 0 1-.082 1.438-.25A3.37 3.37 0 0 0 5.406-1c.32-.332.57-.727.75-1.188.176-.468.27-.988.282-1.562 0-.531-.079-1.02-.235-1.469a3.412 3.412 0 0 0-.687-1.187 3.18 3.18 0 0 0-1.125-.782c-.45-.187-.97-.285-1.563-.296H1.063V0zm-1.25-.406v-6.672h1.25c.5.012.938.101 1.313.266.382.156.703.386.953.687.258.305.453.664.578 1.078.125.418.191.883.203 1.39-.012.512-.094.966-.25 1.36a2.922 2.922 0 0 1-.656 1.016c-.274.281-.594.5-.969.656a3.28 3.28 0 0 1-1.219.219zm0 0"/></symbol><symbol overflow="visible" id="ar"><path d="M5.078-7.484H1.062V0h4.141v-.406H1.578v-3.156h3.375v-.407H1.578v-3.11h3.5zm0 0"/></symbol><symbol overflow="visible" id="as"><path d="M6.094-3.719H4v.406h1.578v2.688c-.137.074-.328.14-.578.203a4.245 4.245 0 0 1-.828.094c-.492 0-.922-.078-1.297-.234a2.603 2.603 0 0 1-.938-.704 3.14 3.14 0 0 1-.578-1.093 4.941 4.941 0 0 1-.171-1.47c0-.53.066-1 .203-1.405.144-.414.347-.766.609-1.047.27-.282.594-.492.969-.64a3.496 3.496 0 0 1 1.265-.22c.313 0 .594.032.844.094.258.063.469.121.625.172l.156-.375a2.353 2.353 0 0 0-.28-.094 2.75 2.75 0 0 0-.376-.11c-.137-.038-.289-.07-.453-.093a9.257 9.257 0 0 0-.484-.047 4.154 4.154 0 0 0-1.563.313c-.45.187-.828.453-1.14.797A3.375 3.375 0 0 0 .859-5.25c-.156.469-.234.98-.234 1.531 0 .563.07 1.078.219 1.547.156.469.379.875.672 1.219.3.344.664.61 1.093.797.438.176.93.265 1.485.265.195 0 .39-.011.578-.03.195-.024.426-.071.687-.142.27-.07.516-.18.735-.328zm0 0"/></symbol><symbol overflow="visible" id="at"><path d="M1.578 0v-3.203h1.875L5.172 0h.547L3.937-3.297c.196-.062.395-.148.594-.265.196-.114.38-.254.547-.422.176-.176.317-.38.422-.61.102-.238.16-.508.172-.812a2.034 2.034 0 0 0-.203-.844 1.795 1.795 0 0 0-.5-.656 2.185 2.185 0 0 0-.782-.422 3.501 3.501 0 0 0-.953-.156H1.063V0zm1.594-7.078c.625.012 1.098.172 1.422.484.332.305.504.735.515 1.297-.011.23-.058.438-.14.625-.086.188-.2.356-.344.5a2.26 2.26 0 0 1-.469.36c-.18.093-.36.164-.547.203H1.58v-3.47zm0 0"/></symbol><symbol overflow="visible" id="au"><path d="M1.578 0v-3.094h1.469c.363 0 .695-.047 1-.14.312-.102.578-.25.797-.438.218-.187.39-.414.515-.687.125-.282.188-.598.188-.954 0-.32-.059-.613-.172-.875-.117-.269-.281-.5-.5-.687a2.1 2.1 0 0 0-.781-.438 3.322 3.322 0 0 0-.985-.171H1.063V0zm1.469-7.078c.656.012 1.14.18 1.453.5.32.312.484.773.484 1.375 0 .273-.046.516-.14.734-.086.211-.246.422-.485.64-.242.22-.656.329-1.25.329H1.58v-3.578zm0 0"/></symbol><symbol overflow="visible" id="av"><path d="M1.063 0h.515v-6.984l2.906 5.921h.438l2.906-5.921V0h.516v-7.484h-.781l-2.86 5.828-2.86-5.828h-.78zm0 0"/></symbol><symbol overflow="visible" id="aB"><path d="M4.563-2.781H3v.297h1.188V-.47c-.106.055-.25.106-.438.156a2.824 2.824 0 0 1-.625.063c-.367 0-.688-.055-.969-.172a1.997 1.997 0 0 1-.703-.531 2.424 2.424 0 0 1-.437-.828A3.54 3.54 0 0 1 .89-2.875c0-.395.05-.742.156-1.047a2.03 2.03 0 0 1 .453-.781 1.93 1.93 0 0 1 .734-.484c.282-.114.594-.172.938-.172.238 0 .453.027.64.078.196.043.352.086.47.125l.109-.282c-.055-.019-.121-.046-.204-.078a2.425 2.425 0 0 0-.28-.078 1.794 1.794 0 0 0-.345-.062 5 5 0 0 0-.359-.047c-.437.012-.828.09-1.172.234a2.385 2.385 0 0 0-.86.61c-.23.261-.405.57-.53.921a3.53 3.53 0 0 0-.172 1.141c0 .43.054.82.172 1.172.113.355.28.664.5.922.226.25.504.445.828.578.32.133.691.203 1.11.203.144 0 .288-.012.437-.031.144-.012.316-.043.515-.094.196-.05.375-.133.532-.25zm0 0"/></symbol><symbol overflow="visible" id="aC"><path d="M2.36.078c.288 0 .554-.055.796-.156a1.62 1.62 0 0 0 .61-.453c.175-.196.312-.438.406-.719.094-.281.144-.598.156-.953a3.08 3.08 0 0 0-.156-.89c-.094-.27-.227-.5-.39-.688a1.758 1.758 0 0 0-.595-.453 1.709 1.709 0 0 0-.765-.172c-.305 0-.574.058-.813.172-.242.105-.449.261-.625.468-.168.2-.296.438-.39.72a3.15 3.15 0 0 0-.125.921c0 .336.039.637.125.906.094.274.222.508.39.703.164.188.364.336.594.438.238.101.5.156.781.156zm.062-.312c-.25 0-.469-.04-.656-.125A1.419 1.419 0 0 1 1.28-.75a1.842 1.842 0 0 1-.312-.625 3.288 3.288 0 0 1-.094-.828c0-.281.031-.535.094-.766.07-.226.172-.426.297-.594a1.374 1.374 0 0 1 1.094-.516c.238 0 .452.048.64.141.188.086.348.215.484.391.145.168.25.375.313.625.07.242.113.508.125.797a3.275 3.275 0 0 1-.125.797c-.063.23-.164.43-.297.594a1.384 1.384 0 0 1-.469.375c-.187.086-.39.125-.61.125zm0 0"/></symbol><symbol overflow="visible" id="aD"><path d="M1.906-1.406c.207 0 .399-.035.578-.11a1.56 1.56 0 0 0 .485-.328 1.458 1.458 0 0 0 .469-1.078 1.43 1.43 0 0 0-.094-.531 1.792 1.792 0 0 0-.235-.438c.102-.07.239-.125.407-.156.164-.031.336-.031.515 0v-.344a1.662 1.662 0 0 0-.375.016c-.105.012-.23.04-.375.078a.876.876 0 0 0-.36.219 1.61 1.61 0 0 0-.452-.234 1.339 1.339 0 0 0-.5-.094c-.219 0-.422.043-.61.125a1.3 1.3 0 0 0-.484.328 1.56 1.56 0 0 0-.328.484c-.074.18-.11.371-.11.578 0 .356.083.653.25.891.165.23.391.398.672.5-.074.043-.14.09-.203.14a2.29 2.29 0 0 0-.218.22.587.587 0 0 0-.11.374c0 .149.024.258.078.329.063.074.114.132.156.171.04.032.086.059.141.079-.105.042-.21.101-.312.171C.797.054.707.133.625.22a1.581 1.581 0 0 0-.188.297.797.797 0 0 0-.062.312c0 .164.035.313.11.438a.99.99 0 0 0 .343.312c.156.094.336.16.547.203.207.04.438.063.688.063.289 0 .55-.032.78-.094.227-.063.427-.152.595-.266.164-.105.289-.23.374-.375a.887.887 0 0 0 .141-.484.875.875 0 0 0-.11-.438.984.984 0 0 0-.296-.312 1.296 1.296 0 0 0-.406-.188 1.761 1.761 0 0 0-.454-.062h-.984c-.18 0-.308-.035-.39-.11a.43.43 0 0 1-.125-.328c0-.113.046-.222.14-.328.094-.113.203-.207.328-.28.082.01.164.015.25.015zm.016-.313c-.156 0-.305-.023-.438-.078a1.164 1.164 0 0 1-.359-.25 1.107 1.107 0 0 1-.25-.375 1.552 1.552 0 0 1-.078-.515c0-.165.023-.317.078-.454a1.235 1.235 0 0 1 .61-.61c.144-.061.296-.093.453-.093.156 0 .3.032.437.094a.843.843 0 0 1 .36.25c.1.105.18.234.234.39.062.15.097.31.11.485a1.42 1.42 0 0 1-.11.469 1.06 1.06 0 0 1-.235.36 1.265 1.265 0 0 1-.359.25c-.137.054-.29.077-.453.077zm.234 3.235c-.449 0-.793-.063-1.031-.188-.242-.125-.36-.312-.36-.562C.766.672.782.582.813.5A.944.944 0 0 1 .97.266c.062-.063.133-.121.219-.172.082-.055.171-.098.265-.14h1.172c.3 0 .531.062.688.187.164.125.25.3.25.53 0 .126-.04.24-.11.345a.804.804 0 0 1-.281.265c-.125.07-.277.13-.453.172-.168.04-.356.063-.563.063zm0 0"/></symbol><symbol overflow="visible" id="aE"><path d="M.797-6.156V0h.39v-6.25zm0 0"/></symbol><symbol overflow="visible" id="aF"><path d="M3.75-2.125c.02-.07.047-.172.078-.297.031-.133.047-.273.047-.422 0-.5-.133-.879-.39-1.14-.262-.27-.626-.41-1.094-.422-.293 0-.559.058-.797.172-.23.105-.434.261-.61.468-.168.2-.296.438-.39.72a3.15 3.15 0 0 0-.125.921c0 .336.047.637.14.906.094.274.227.508.407.703.175.188.39.336.64.438.25.101.524.156.828.156.094 0 .192-.008.297-.015.102 0 .207-.012.313-.032.101-.023.203-.039.297-.062l.265-.094-.11-.281a1.5 1.5 0 0 1-.233.078c-.086.023-.172.039-.266.047a4.974 4.974 0 0 1-.266.031 1.724 1.724 0 0 1-.234.016c-.281 0-.527-.04-.735-.125a1.593 1.593 0 0 1-.53-.375 1.688 1.688 0 0 1-.313-.594 3.505 3.505 0 0 1-.11-.797zM2.344-4.078c.363 0 .644.105.844.312.195.2.296.496.296.891 0 .2-.015.355-.046.469H.874c0-.239.035-.457.11-.656a1.63 1.63 0 0 1 .296-.532c.133-.156.285-.273.453-.36.176-.081.38-.124.61-.124zm0 0"/></symbol><symbol overflow="visible" id="aG"><path d="M1.047-5.61h-.39v3.485c0 .355.038.668.124.938.094.273.266.554.516.843.258.281.695.422 1.312.422.313 0 .594-.047.844-.14.25-.102.461-.25.64-.438.177-.195.305-.43.391-.703.094-.281.145-.598.157-.953V-5.61H4.25v3.515c0 .293-.04.555-.11.781-.074.231-.214.465-.421.704-.211.242-.559.359-1.047.359-.524 0-.922-.16-1.203-.484-.282-.332-.422-.817-.422-1.454zm0 0"/></symbol><symbol overflow="visible" id="aH"><path d="M4.125 0v-6.25l-.375.094v2.11a2.383 2.383 0 0 0-.531-.235l-.375-.094a1.324 1.324 0 0 0-.266-.031 2.075 2.075 0 0 0-1.515.64c-.188.2-.336.438-.438.72a2.535 2.535 0 0 0-.156.921c0 .336.039.637.125.906.082.274.203.508.36.703.163.188.362.336.593.438.238.101.504.156.797.156.125 0 .25-.015.375-.047.133-.031.265-.07.39-.125a2.24 2.24 0 0 0 .375-.218 1.59 1.59 0 0 0 .297-.329L3.86 0zM3.75-.953a1.54 1.54 0 0 1-.234.25c-.094.086-.2.164-.313.234a1.482 1.482 0 0 1-.781.235c-.512-.008-.899-.18-1.156-.516-.262-.344-.391-.828-.391-1.453 0-.281.035-.535.11-.766.081-.226.195-.426.343-.594.145-.164.317-.289.516-.374.207-.094.43-.141.672-.141.226 0 .441.031.64.094.207.062.406.152.594.265zm0 0"/></symbol><symbol overflow="visible" id="aI"><path d="M3.375-2.906c0-.227-.031-.43-.094-.61A1.177 1.177 0 0 0 3-3.984a1.16 1.16 0 0 0-.453-.313c-.18-.07-.387-.11-.625-.11-.149 0-.29.016-.422.048-.137.03-.262.07-.375.109a2.756 2.756 0 0 0-.5.234l.14.25c.102-.062.227-.117.376-.171.156-.051.285-.086.39-.11.114-.02.235-.031.36-.031.195 0 .363.031.5.094a.947.947 0 0 1 .406.328c.133.156.203.43.203.812v.563a5.246 5.246 0 0 0-1.047-.016c-.23.024-.437.07-.625.14-.18.063-.34.15-.484.25-.137.106-.242.231-.313.376-.074.148-.11.312-.11.5 0 .168.032.324.095.468.062.137.144.25.25.344.113.094.242.168.39.219.145.05.301.078.469.078.258 0 .508-.062.75-.187.25-.125.473-.305.672-.547 0 .25.05.437.156.562a.616.616 0 0 0 .453.172.69.69 0 0 0 .203-.031A.419.419 0 0 0 4 0l-.063-.234a.166.166 0 0 1-.078.03.535.535 0 0 1-.14.016.307.307 0 0 1-.25-.109c-.063-.07-.094-.191-.094-.36zM.828-1.094c0-.27.098-.476.297-.625.195-.156.469-.254.813-.297.351-.039.707-.039 1.062 0v1.063c-.168.21-.36.383-.578.515-.219.126-.45.196-.688.204-.304-.008-.53-.086-.687-.235C.898-.625.828-.832.828-1.094zm0 0"/></symbol><symbol overflow="visible" id="aJ"><path d="M.875-2.203c0-.281.035-.535.11-.766.081-.226.195-.426.343-.594a1.4 1.4 0 0 1 .531-.374c.22-.094.457-.141.72-.141.163 0 .316.016.452.047.133.031.242.062.328.093l.125-.265a1.193 1.193 0 0 0-.375-.125 2.86 2.86 0 0 0-.515-.078c-.324 0-.617.058-.875.172a1.802 1.802 0 0 0-.672.468c-.188.2-.336.438-.438.72-.093.28-.14.589-.14.921 0 .336.047.637.14.906.094.274.227.508.407.703.187.188.406.336.656.438.258.101.547.156.86.156.187 0 .366-.023.546-.062.188-.032.352-.079.5-.141l-.11-.281a2.061 2.061 0 0 1-.421.125 2.32 2.32 0 0 1-.453.047c-.281 0-.531-.04-.75-.125a1.473 1.473 0 0 1-.547-.391 1.678 1.678 0 0 1-.328-.625 2.48 2.48 0 0 1-.094-.828zm0 0"/></symbol><symbol overflow="visible" id="aK"><path d="M.797-4.328V0h.39v-4.328zm-.11-1.344c0 .086.024.152.079.203a.296.296 0 0 0 .203.078.32.32 0 0 0 .219-.078.336.336 0 0 0 .093-.25.287.287 0 0 0-.078-.203.357.357 0 0 0-.187-.094.387.387 0 0 0-.235.11.318.318 0 0 0-.094.234zm0 0"/></symbol><symbol overflow="visible" id="aL"><path d="M1.344-5.36L1-5.28l-.031.984-.781.047v.234h.78v2.97c0 .386.098.671.298.859.207.187.507.273.906.265.113 0 .234-.012.36-.031a.962.962 0 0 0 .312-.078l-.078-.281a1.652 1.652 0 0 1-.25.062 2.657 2.657 0 0 1-.297.016c-.305 0-.528-.067-.672-.203-.137-.145-.203-.383-.203-.72v-2.859h1.343v-.312H1.345zm0 0"/></symbol><symbol overflow="visible" id="aM"><path d="M3.719-4.328L2.25-.344.547-4.328H.14L2.062.062a5.075 5.075 0 0 1-.28.61c-.087.176-.184.32-.298.437a1.033 1.033 0 0 1-.343.25c-.125.051-.274.079-.438.079a.872.872 0 0 1-.234-.032.935.935 0 0 1-.188-.047l-.11.297c.063.032.134.051.22.063.093.02.195.031.312.031.207.008.395-.023.563-.094a1.23 1.23 0 0 0 .453-.312c.133-.137.265-.324.39-.563.125-.242.254-.531.391-.875l1.625-4.234zm0 0"/></symbol><symbol overflow="visible" id="aO"><path d="M.797-6.156V0h.39v-3.36c.094-.081.196-.16.313-.234.113-.082.238-.156.375-.219.133-.07.27-.128.406-.171.133-.04.266-.063.39-.063.352 0 .614.11.782.328.164.211.25.524.25.938V0h.375v-2.844c0-.238-.027-.453-.078-.64a1.338 1.338 0 0 0-.25-.5 1.08 1.08 0 0 0-.406-.313 1.362 1.362 0 0 0-.563-.11c-.156 0-.312.024-.469.063-.148.043-.289.102-.421.172a2.939 2.939 0 0 0-.391.219 4.6 4.6 0 0 0-.313.25V-6.25zm0 0"/></symbol><symbol overflow="visible" id="aP"><path d="M.406-.219c.114.086.281.157.5.219.227.05.489.078.781.078.227 0 .43-.027.61-.078.176-.05.328-.125.453-.219a.884.884 0 0 0 .281-.344c.07-.144.11-.3.11-.468a1.08 1.08 0 0 0-.282-.719c-.18-.188-.43-.348-.75-.484l-.39-.157c-.188-.07-.34-.14-.453-.203A1.044 1.044 0 0 1 1-2.813a.545.545 0 0 1-.125-.218.666.666 0 0 1-.016-.266c0-.226.055-.394.172-.5.125-.101.242-.176.36-.219.113-.039.242-.062.39-.062.125 0 .242.012.36.031.113.012.238.04.375.078.132.043.238.078.312.11l.11-.297a.845.845 0 0 0-.157-.063 1.72 1.72 0 0 0-.25-.078 2.276 2.276 0 0 0-.703-.11 1.49 1.49 0 0 0-.531.095 1.344 1.344 0 0 0-.438.234.986.986 0 0 0-.296.36c-.063.136-.094.288-.094.452a.972.972 0 0 0 .203.672c.156.18.383.324.687.438L1.75-2c.176.074.328.148.453.219.125.074.223.152.297.234a.765.765 0 0 1 .188.25c.039.086.062.18.062.281a.767.767 0 0 1-.078.344 1.083 1.083 0 0 1-.281.297c-.137.094-.352.14-.641.14A3.509 3.509 0 0 1 1-.327C.79-.378.633-.441.531-.516zm0 0"/></symbol><symbol overflow="visible" id="aQ"><path d="M.797-4.328V0h.39v-3.36c.094-.081.196-.16.313-.234.113-.082.238-.156.375-.219.133-.07.27-.128.406-.171.133-.04.266-.063.39-.063.352 0 .614.11.782.328.164.211.25.524.25.938V0h.375v-2.844c0-.238-.027-.453-.078-.64a1.338 1.338 0 0 0-.25-.5 1.08 1.08 0 0 0-.406-.313 1.362 1.362 0 0 0-.563-.11c-.168 0-.328.028-.484.079a2.745 2.745 0 0 0-.438.172 5.437 5.437 0 0 0-.39.234 3.577 3.577 0 0 0-.328.25l-.063-.656zm0 0"/></symbol><symbol overflow="visible" id="aR"><path d="M1.344-4.828c-.012-.363.062-.633.218-.813.165-.187.422-.28.766-.28.133 0 .25.01.344.03.094.024.172.04.234.047l.063-.281a1.157 1.157 0 0 0-.266-.078 3.871 3.871 0 0 0-.36-.047 1.703 1.703 0 0 0-.577.125 1.176 1.176 0 0 0-.703.703 1.43 1.43 0 0 0-.094.531v.594l-.781.047v.234h.78V0h.376v-4.016h1.11v-.312h-1.11zm0 0"/></symbol><symbol overflow="visible" id="aS"><path d="M.797-4.328L.812 0h.375v-3.328c.07-.07.16-.145.266-.219.113-.07.266-.148.453-.234.188-.094.426-.164.719-.219v-.406a2.015 2.015 0 0 0-.703.234c-.2.106-.356.2-.469.281a2.656 2.656 0 0 0-.312.266l-.063-.703zm0 0"/></symbol><symbol overflow="visible" id="aT"><path d="M.797-4.328V0h.39v-3.36c.094-.081.192-.16.297-.234.114-.082.235-.156.36-.219.133-.07.265-.128.39-.171.133-.04.27-.063.407-.063.332 0 .578.11.734.328.156.211.234.524.234.938V0h.375v-3.36c.094-.081.196-.16.313-.234.113-.082.234-.156.36-.219.132-.07.265-.128.39-.171.133-.04.266-.063.39-.063.333 0 .579.11.735.328.164.211.25.524.25.938V0h.375v-2.844c0-.238-.027-.453-.078-.64a1.52 1.52 0 0 0-.235-.5 1.091 1.091 0 0 0-.39-.313c-.157-.07-.34-.11-.547-.11a1.86 1.86 0 0 0-.86.22 4.4 4.4 0 0 0-.812.578 1.129 1.129 0 0 0-.422-.579c-.187-.144-.43-.218-.719-.218-.156 0-.312.027-.468.078-.149.043-.29.101-.422.172a5.437 5.437 0 0 0-.39.234 4.601 4.601 0 0 0-.313.25l-.063-.656zm0 0"/></symbol><symbol overflow="visible" id="aU"><path d="M.797-4.328v6h.39V-.266c.094.055.188.106.282.157.101.043.234.086.39.125.157.039.317.062.485.062.289 0 .566-.055.828-.156.258-.102.484-.254.672-.453.187-.196.332-.438.437-.719.114-.281.176-.598.188-.953a3.335 3.335 0 0 0-.14-.875 2.093 2.093 0 0 0-.376-.703 1.557 1.557 0 0 0-.594-.453 1.752 1.752 0 0 0-.78-.172c-.126 0-.259.023-.392.062a1.728 1.728 0 0 0-.39.14 1.89 1.89 0 0 0-.36.235c-.117.086-.214.18-.296.281l-.063-.64zm.39.969c.051-.082.125-.164.22-.25.093-.082.195-.157.312-.22.113-.07.238-.128.375-.171.133-.05.273-.078.422-.078.25 0 .468.047.656.14.195.086.36.215.484.391.133.168.235.371.297.61.07.242.11.511.11.812a2.603 2.603 0 0 1-.141.781c-.074.23-.188.43-.344.594-.148.168-.32.297-.515.39-.2.087-.415.126-.641.126-.242 0-.465-.032-.672-.094a2.18 2.18 0 0 1-.563-.266zm0 0"/></symbol><symbol overflow="visible" id="aV"><path d="M3.719-4.328L2.14-.422.578-4.328h-.39L1.952 0h.39L4.11-4.328zm0 0"/></symbol><symbol overflow="visible" id="aW"><path d="M3.953 0v-4.328h-.39v3.375a2.573 2.573 0 0 1-.329.25 7.975 7.975 0 0 1-.359.219 2.397 2.397 0 0 1-.39.156 1.745 1.745 0 0 1-.391.047c-.344 0-.602-.102-.766-.313-.156-.207-.234-.523-.234-.953v-2.781H.719v2.844c0 .25.02.468.062.656.051.187.13.355.235.5a.986.986 0 0 0 .39.312c.164.063.364.094.594.094.156 0 .305-.023.453-.062a2.522 2.522 0 0 0 .813-.39c.125-.095.238-.189.343-.282L3.672 0zm0 0"/></symbol><symbol overflow="visible" id="aX"><path d="M.547-.219c0 .094.023.168.078.219.05.05.117.078.203.078A.34.34 0 0 0 1.047 0a.336.336 0 0 0 .094-.25.257.257 0 0 0-.094-.203.357.357 0 0 0-.188-.094.387.387 0 0 0-.234.11.32.32 0 0 0-.078.218zm0 0"/></symbol><symbol overflow="visible" id="aY"><path d="M.469-2.797c0 .43.054.82.172 1.172.125.355.3.664.53.922.24.25.524.445.86.578.344.133.727.203 1.156.203.227 0 .446-.023.657-.062.207-.04.394-.098.562-.172l-.11-.281a3.45 3.45 0 0 1-.437.124 2.41 2.41 0 0 1-.562.063A2.87 2.87 0 0 1 2.25-.422a2.06 2.06 0 0 1-.766-.531 2.264 2.264 0 0 1-.453-.828 3.91 3.91 0 0 1-.14-1.094c0-.395.05-.742.156-1.047.101-.312.25-.57.437-.781.196-.219.43-.379.704-.484.269-.114.566-.172.89-.172.207 0 .395.023.563.062.175.043.328.086.453.125l.11-.266a2.417 2.417 0 0 0-.516-.171 2.88 2.88 0 0 0-.579-.094c-.418.012-.793.09-1.125.234a2.441 2.441 0 0 0-.828.61c-.23.261-.402.57-.515.921a3.53 3.53 0 0 0-.172 1.141zm0 0"/></symbol><symbol overflow="visible" id="aZ"><path d="M3.094-6.688l-3.266 7.75h.39l3.25-7.75zm0 0"/></symbol><symbol overflow="visible" id="ba"><path d="M1.188-5.61H.796V0h.39v-1.453L2.36-2.922 4.33 0h.468L2.609-3.203 4.47-5.61H4.03L1.188-1.953zm0 0"/></symbol><symbol overflow="visible" id="bb"><path d="M.422-.281c.156.094.363.18.625.25.27.07.57.11.906.11.27 0 .516-.032.734-.095.227-.07.422-.171.579-.296.156-.126.273-.274.359-.454.082-.175.125-.375.125-.593 0-.332-.117-.618-.344-.86-.219-.25-.531-.46-.937-.64l-.547-.204a2.895 2.895 0 0 1-.516-.25 1.368 1.368 0 0 1-.328-.265.831.831 0 0 1-.172-.328 1.613 1.613 0 0 1-.047-.422.9.9 0 0 1 .094-.406.839.839 0 0 1 .266-.329c.113-.093.242-.164.39-.218a1.66 1.66 0 0 1 .516-.078c.238 0 .46.027.672.078.219.054.406.105.562.156l.11-.297a2.924 2.924 0 0 0-.625-.187 3.795 3.795 0 0 0-.656-.094 2.535 2.535 0 0 0-.704.125c-.21.074-.39.172-.546.297a1.26 1.26 0 0 0-.36.453 1.184 1.184 0 0 0-.125.547c0 .367.098.668.297.906.195.23.469.414.813.547l.546.203c.22.094.407.188.563.281.164.094.297.196.39.297.094.094.16.203.204.328.05.117.078.246.078.39 0 .169-.031.321-.094.454-.063.125-.184.262-.36.406-.18.149-.468.219-.874.219-.305 0-.579-.031-.829-.094a3.225 3.225 0 0 1-.64-.234zm0 0"/></symbol><symbol overflow="visible" id="bc"><path d="M3.313-1.61c0 .188-.04.368-.11.532a1.304 1.304 0 0 1-.781.734 2.028 2.028 0 0 1-.64.094c-.294 0-.532-.023-.72-.078a2.178 2.178 0 0 1-.437-.156L.5-.22c.102.074.254.14.453.203.207.063.473.094.797.094.29 0 .555-.043.797-.125.238-.082.441-.203.61-.36a1.59 1.59 0 0 0 .405-.546c.094-.219.145-.453.157-.703a1.858 1.858 0 0 0-.156-.672 1.373 1.373 0 0 0-.391-.531 1.75 1.75 0 0 0-.61-.36c-.242-.094-.5-.14-.78-.14-.137 0-.266.007-.391.015-.125.012-.23.024-.313.031l.078-2h2.297v-.296H.813L.719-2.953c.101-.02.238-.04.406-.063.176-.02.375-.03.594-.03.258 0 .488.038.687.108.196.075.36.18.485.313.132.125.234.277.296.453.07.168.114.356.126.563zm0 0"/></symbol><symbol overflow="visible" id="bd"><path d="M1.188 0v-2.328h1.109c.27 0 .52-.035.75-.11.226-.07.422-.175.578-.312.164-.145.297-.32.39-.531.094-.207.145-.442.157-.703a1.994 1.994 0 0 0-.14-.672 1.352 1.352 0 0 0-.376-.5 1.553 1.553 0 0 0-.578-.328 2.083 2.083 0 0 0-.734-.125H.797V0zm1.109-5.313c.476.012.836.137 1.078.375.25.243.375.586.375 1.032 0 .21-.04.39-.11.547-.062.156-.187.32-.374.484-.18.168-.485.25-.922.25H1.188v-2.688zm0 0"/></symbol><symbol overflow="visible" id="be"><path d="M.5 0h3.36v-.297H.952c.469-.5.867-.937 1.203-1.312.344-.375.625-.707.844-1 .227-.301.395-.579.5-.829.113-.257.172-.515.172-.765 0-.227-.043-.43-.125-.61a1.257 1.257 0 0 0-.36-.468 1.389 1.389 0 0 0-.53-.297c-.2-.07-.423-.11-.673-.11-.156 0-.304.016-.437.047a1.555 1.555 0 0 0-.375.11 3.425 3.425 0 0 0-.297.125l-.219.11.14.25c.04-.02.099-.048.173-.079.082-.04.172-.078.265-.11.102-.038.211-.07.329-.093.113-.02.234-.031.359-.031.445 0 .781.109 1 .328.219.21.328.5.328.875 0 .187-.043.386-.125.593-.086.211-.23.454-.438.735-.199.281-.476.625-.828 1.031A41.48 41.48 0 0 1 .5-.328zm0 0"/></symbol><symbol overflow="visible" id="bf"><path d="M4.344 0h.515v-5.61h-.39v5.141l-3.14-5.14H.796V0h.39v-5.14zm0 0"/></symbol><symbol overflow="visible" id="bg"><path d="M.797-6.156v5.828c.094.062.195.121.312.172.114.054.235.101.36.14.125.032.254.051.39.063.133.02.266.031.391.031.313 0 .598-.055.86-.156.257-.102.476-.254.656-.453.187-.196.332-.438.437-.719.102-.281.156-.598.156-.953 0-.32-.046-.617-.14-.89-.094-.27-.23-.5-.407-.688a1.94 1.94 0 0 0-.609-.453 1.709 1.709 0 0 0-.765-.172c-.2 0-.407.031-.626.093-.218.063-.43.157-.625.282V-6.25zm3.172 4.031a2.782 2.782 0 0 1-.14.797c-.075.23-.188.43-.345.594a1.677 1.677 0 0 1-.53.375c-.2.086-.423.125-.673.125-.21 0-.402-.02-.578-.063-.168-.039-.34-.11-.516-.203v-3.234c.176-.102.368-.188.579-.25.207-.063.41-.094.609-.094.238 0 .457.047.656.14.196.086.364.215.5.391.133.168.239.375.313.625.082.242.125.508.125.797zm0 0"/></symbol><symbol overflow="visible" id="bh"><path d="M.188-5.313h1.734V0h.375v-5.313h1.719v-.296H.187zm0 0"/></symbol><symbol overflow="visible" id="bi"><path d="M3.719-5.61H.797V0h.39v-2.672h2.329v-.312H1.187v-2.329H3.72zm0 0"/></symbol><symbol overflow="visible" id="bj"><path d="M.344 1.36c.07-.032.148-.087.234-.157.082-.074.16-.156.235-.25C.894.86.96.75 1.016.625c.05-.125.078-.262.078-.406a1.214 1.214 0 0 0-.11-.516.651.651 0 0 0-.109-.172.523.523 0 0 1-.063-.125l-.39.11c.07.086.133.187.187.312a.963.963 0 0 1 .032.75.752.752 0 0 1-.141.25c-.055.07-.11.133-.172.188-.055.05-.105.097-.156.14zm0 0"/></symbol></defs><path d="M29.811 18.572h731.883V593.43H29.81zm0 0" transform="matrix(.89184 0 0 .89098 42.831 28.32)" fill="none" stroke="#00b2e3" stroke-miterlimit="10"/><path d="M27.831 20.554h735.847v570.895H27.831zm0 0" transform="matrix(.89184 0 0 .89098 42.831 28.32)" fill="none" stroke="#00b2e3" stroke-miterlimit="10"/><path d="M25.847 22.535h739.81v566.932H25.848zm0 0" transform="matrix(.89184 0 0 .89098 42.831 28.32)" fill="none" stroke="#00b2e3" stroke-miterlimit="10"/><path d="M23.868 24.517h743.774V587.48H23.868zm0 0" transform="matrix(.89184 0 0 .89098 42.831 28.32)" fill="none" stroke="#00b2e3" stroke-miterlimit="10"/><path d="M21.883 26.499h747.739v559H21.883zm0 0" transform="matrix(.89184 0 0 .89098 42.831 28.32)" fill="none" stroke="#00b2e3" stroke-miterlimit="10"/><path d="M19.9 28.48h751.706v555.038H19.899zm0 0" transform="matrix(.89184 0 0 .89098 42.831 28.32)" fill="none" stroke="#00b2e3" stroke-miterlimit="10"/><path d="M17.92 30.462h755.67v551.074H17.92zm0 0" transform="matrix(.89184 0 0 .89098 42.831 28.32)" fill="none" stroke="#00b2e3" stroke-miterlimit="10"/><path d="M15.935 32.448H775.57v547.106H15.935zm0 0" transform="matrix(.89184 0 0 .89098 42.831 28.32)" fill="none" stroke="#00b2e3" stroke-miterlimit="10"/><path d="M203.232 278.227h385.536M149.665 384.36h492.67M72 509.53h203.892" transform="matrix(.89184 0 0 .89098 42.831 28.32)" fill="none" stroke="#01b0e0" stroke-miterlimit="10"/><path d="M169.047 476.305c.973-1.29 1.945-2.578 2.922-3.868-1.309-1.359-.832-2.726 1.265-3.62-.586.785-1.172 1.566-1.754 2.347l.516.457c2.39-.633 3.164-2.992 4.477-4.8l-2.086 1.066c.648-.594 1.215-1.34 1.968-1.742 1.172-.63 1.708-1.52 1.786-3.063-2.602.356-5.243.422-7.676 1.164-1.293.39-2.219 1.969-3.328 2.988-1.282 1.184-2.7 2.243-3.848 3.543-1.082 1.22-1.98 2.625-2.8 4.043-2.962 5.137-5.579 10.496-8.844 15.434-5.239 7.922-11.848 14.562-20.95 17.953-6.222 2.313-12.715 2.902-19.277.977-6.32-1.852-8.543-8.622-7.527-13.38 1.277-6.019 4.808-10.64 9.453-14.534 5.207-4.364 11.41-6.696 17.68-8.95 10.015-3.601 20.347-5.957 30.84-7.511 3.105-.461 4.566-1.79 5.855-4.45 1.969-4.054 4.363-7.921 6.781-11.734 1.145-1.805 3.172-2.691 5.254-3.004 1.73-.262 2.531.906 1.996 2.574-1.063 3.309-3.121 6.043-5.188 8.754-1.535 2.02-3.19 3.946-5.042 6.215 2.503-.273 4.718-.476 6.914-.797.359-.055.695-.59.953-.965.965-1.39 1.875-2.82 2.843-4.21.266-.38.618-.735 1.008-.965.274-.164.68-.098 1.028-.133-.008.328.105.73-.043.98-.703 1.223-1.477 2.406-2.23 3.598-.27.426-.555.84-.641 1.543.601-.18 1.265-.262 1.8-.563 5.235-2.922 10.461-5.855 15.653-8.859.613-.356 1.144-1.066 1.433-1.734.852-1.989 1.559-4.04 2.325-6.067.148.043.296.086.44.13l-2.23 6.612c.95-.41 1.582-.652 2.188-.949 10.394-5.082 21.14-9.125 32.613-11.02 5.14-.85 10.305-1.402 15.516-.671a11.42 11.42 0 0 1 2.46.644c2.102.801 2.56 2.403 1.009 4.075-1.207 1.304-2.559 2.566-4.067 3.476-3.91 2.348-7.945 4.492-11.93 6.719l-.246-.434c1.778-.957 3.567-1.887 5.325-2.875 3.304-1.86 6.832-3.406 9.488-6.222.726-.77 1.66-2.032 1.46-2.801-.194-.766-1.651-1.602-2.632-1.703-3.031-.328-6.125-.614-9.152-.387-9.899.738-19.426 3.223-28.61 6.934-4.285 1.734-8.46 3.742-12.64 5.726-.668.32-1.235 1.11-1.586 1.817-1.239 2.484-2.364 5.027-3.692 7.89 1.7-.695 3.125-1.324 4.582-1.863 4.594-1.707 9.157-3.504 13.82-4.992 1.536-.489 3.38-.375 5.008-.11 2.606.43 3.649 2.418 3.641 5.032-.008 2.62-1.465 4.488-2.703 6.457-1.957 3.113-4.133 6.086-6.223 9.109-.125.176-.351.277-.73.285.125-.242.226-.5.371-.723 2.332-3.546 4.73-7.05 6.965-10.656.777-1.25 1.324-2.71 1.676-4.148.605-2.461-.778-4.36-3.254-4.844-2.868-.555-5.578.223-8.18 1.18-5.031 1.855-9.996 3.906-14.941 5.98-.625.262-1.098 1.102-1.434 1.777-1.242 2.485-2.395 5.008-3.398 7.676.273-.425.48-.922.832-1.265 1.132-1.11 2.293-2.196 3.507-3.207.23-.192.84-.118 1.149.058.168.094.207.727.066.996-1.273 2.465-2.597 4.903-3.91 7.348-.344.637-.695 1.27-1.047 1.902l-.394-.218c1.644-3.106 3.293-6.207 4.937-9.313l-.375-.281c-1.46.605-2.62 1.648-3.508 2.949a128.186 128.186 0 0 0-3.77 5.914c-.745 1.234-1.843 1.281-2.948.899-.934-.32-1.625-.215-2.278.464l1.77-2.234c-.38.934.265 1.273.937 1.266.598-.008 1.637-.278 1.707-.602.356-1.61.457-3.273.68-5.219l-3.332 4.504c1.602-2.664 3.07-5.387 3.41-8.597.172.03.34.066.512.097v5.926c.094.004.187.008.285.008 1.598-3.25 3.2-6.5 4.8-9.746a27.494 27.494 0 0 0-.3-.172c-4.086 1.87-8.164 3.742-12.293 5.633.832.324 1.516.59 2.113.824.684-.57 1.336-1.113 1.985-1.656.129.113.254.23.379.343-.164.364-.274.762-.493 1.082a234.706 234.706 0 0 1-3.414 4.848c-1.136 1.563-1.332 3.16-.457 4.61.582-.32 1.172-.641 1.758-.962-.305.391-.543.887-.933 1.16-1.016.704-1.797.27-1.891-1.003-.04-.512-.008-1.028-.32-1.766-.825.777-1.66 1.54-2.465 2.336-1.406 1.387-2.102 1.336-3.258-.351-.207.171-.426.32-.61.507-.68.672-1.445 1.5-2.417.864-.86-.567-1.7-1.348-1.211-2.707.21-.579.035-1.293.035-2.149l-1.703 1.07zm-4.055-11.368c-.91.102-1.742.137-2.55.293-5.778 1.13-11.606 2.067-17.313 3.485-5.34 1.328-10.606 3.027-15.813 4.828-8.023 2.773-15.523 6.457-20.738 13.566-2.574 3.512-4.691 7.239-4.293 11.801.426 4.95 2.848 8.582 7.809 9.93 4.851 1.32 9.73 1.12 14.586.062 8.332-1.82 14.511-7.015 20.02-13.117 4.421-4.898 7.562-10.672 10.655-16.45 1.008-1.882 1.98-3.776 2.973-5.667-1.941 1.117-3.605 2.43-5.328 3.652-.43.305-1.063.32-1.602.47 5.13-3.114 9.454-6.778 11.594-12.853zm19.64-2.722c-1.39.598-2.878 1.086-4.202 1.851-2.512 1.446-2.473 1.668-1.586 4.383.347 1.063.75 1.203 1.707.77 3.863-1.758 7.758-3.446 11.62-5.203 1.067-.489 2.505-.868 3.02-1.739 1.633-2.77 2.91-5.75 4.325-8.648a32.6 32.6 0 0 1-.399-.356c-4.996 2.782-9.992 5.567-15.16 8.442.375.265.48.328.57.406.121.098.23.207.106.094zm-18.015 1.515c3.293.157 3.867-.277 5.203-1.94 2.211-2.755 4.41-5.52 6.461-8.395 1.09-1.52 1.93-3.239 2.723-4.946.246-.531.223-1.55-.125-1.898-.375-.38-1.324-.434-1.941-.281-1.961.488-3.446 1.765-4.524 3.425-1.57 2.41-3.098 4.852-4.496 7.36-1.184 2.12-2.164 4.355-3.3 6.675zm11.692 8.012c-.153-.215-.305-.433-.461-.648-.97.195-1.942.383-2.91.59-3.118.668-4.864 4.43-3.356 7.195.492.906 1.219 1.254 1.852.34 1.695-2.446 3.257-4.977 4.875-7.477zm-1.961 7.848c.504-.242.82-.3.996-.492 1.476-1.602 2.972-3.196 4.363-4.871.559-.672.926-1.52 1.262-2.34.195-.489.16-1.07.23-1.614-.515-.015-1.097-.187-1.543-.015-3.605 1.41-4.64 4.797-5.914 7.957-.129.316.375.887.606 1.375zm-12.664-10.582c.12.12.242.238.363.355 1.656-1.554 3.312-3.113 4.969-4.672-.114-.18-.223-.359-.336-.539-.934.309-2.168.352-2.735.989-.972 1.093-1.53 2.558-2.261 3.867zm11.203 1.285c.113.191.222.383.332.574 1.066-.37 2.312-.531 3.105-1.219.32-.277-.344-1.695-.629-2.89-1.093 1.379-1.953 2.457-2.808 3.535zm4.785-8.39c.152.109.308.214.46.324 1.145-1.66 2.286-3.32 3.43-4.98l-.53-.36c-1.122 1.672-2.243 3.343-3.36 5.015zm0 0M224.031 473.867c.313-.523.543-1.125.953-1.555 1.489-1.55 2.438-3.324 2.61-5.492.023-.261.187-.511.504-.73l-.25 1.91c1.355-.844 2.613-1.629 3.87-2.41.184.144.364.293.548.437-.356.723-.637 1.493-1.075 2.157-.957 1.445-2.035 2.804-2.964 4.261-.325.508-.348 1.203-.602 2.168 2.004-.925 2.695-2.48 3.605-3.863.88-1.34 1.887-2.598 2.836-3.89.137.093.278.195.414.288-.89 1.329-1.777 2.653-2.671 3.977-.922 1.363-1.664 2.754-.73 4.52l1.183-.415c-1.317 1.528-1.39 1.489-2.453-1.132-.082.015-.172.015-.25.05-.672.305-1.348.618-2.02.93-.023-.789-.32-1.707-.02-2.344.633-1.332 1.567-2.527 2.407-3.757.508-.75 1.074-1.457 1.441-2.332-2.11.515-3.293 1.98-4.14 3.804-.672 1.446-1.29 2.922-2.024 4.34-.258.496-.781.856-1.18 1.277-.187-.082-.375-.164-.562-.242.203-.668.406-1.336.613-2.004.004.457.004.918.004 1.38.098.019.2.042.3.062.497-.946.993-1.89 1.49-2.84-.063-.031-.13-.067-.192-.098-.547.516-1.094 1.028-1.645 1.543zm0 0" fill="#2e3d49"/><path d="M169.016 476.277c-1.414 1.371-2.735 2.864-4.278 4.075-1.02.796-1.922-.047-2.539-.883-.648.336-1.23.633-1.785.918 1.922-2.586 3.766-5.13 5.688-7.617.453-.59 1.16-.985 1.75-1.47.14.106.28.208.418.31-.184.46-.274 1.003-.57 1.374a106.693 106.693 0 0 1-3.747 4.426c-.621.692-1.433 1.531-.61 2.223.427.355 1.81-.008 2.489-.457.996-.656 1.746-1.692 2.617-2.547.156-.152.395-.219.598-.324zm0 0M217.902 474.328c-.27.18-.804.442-.777.524.39 1.226-.602 1.347-1.227 1.757-.12-.066-.242-.129-.363-.195.406-.77.719-1.61 1.238-2.293 1.97-2.582 4.04-5.082 6.008-7.664a159.73 159.73 0 0 0 4.535-6.3c.536-.786.871-1.708 1.399-2.536.097 1.504-.758 2.715-1.563 3.875-1.77 2.55-3.632 5.035-5.46 7.543-.41.48-.82.957-1.235 1.438-.687.82-1.422 1.605-2.047 2.472-.277.38-.344.914-.508 1.38zm0 0M200.285 475.441c1.188-2.246 2.38-4.488 3.57-6.734.075.027.153.05.23.078-.847 2.246-1.687 4.496-2.66 7.082 2.81-1.199 3.438-4.125 5.583-5.375.113.11.23.219.344.324-.618.91-1.266 1.801-1.848 2.73-1.094 1.743-.856 2.177 1.18 2.267.125.007.246.062.421.109-1.46.691-2.09.46-3.25-1.266-.414.492-.765.989-1.195 1.403-.746.714-1.45 1.062-1.742-.407-.023-.12-.441-.168-.676-.25l.043.04zm0 0M196.57 476.281c-.414.516-.777 1.094-1.265 1.524-.176.156-.907.05-.965-.098-.238-.621-.617-1.426-.406-1.941.593-1.422 1.3-2.86 2.257-4.055 1.106-1.375 2.454-2.59 3.848-3.672.383-.297 1.524-.09 1.957.293.356.316.188 1.23-.008 1.836-.277-.59-.535-1.656-.836-1.668-.695-.031-1.675.25-2.07.766-1.539 2-2.93 4.12-4.293 6.246-.262.406-.152 1.047-.242 1.863l2.047-1.066zm0 0M241.188 473.54c-1.528 1.183-1.56 1.175-3.668-1.114-.415.441-.758.972-1.247 1.281-.39.246-1.07.434-1.406.254-.312-.168-.594-.977-.445-1.309.902-2.015 1.93-3.976 2.914-5.957.168.09.34.176.508.27-.582 1.035-1.223 2.05-1.727 3.12-.488 1.036-1.43 2.009-.68 3.68 1.473-1.425 2.786-2.699 4.227-4.09-.402 1.055-1.113 2-.996 2.825.18 1.242 1.398 1.277 2.52 1.04zm0 0" fill="#2e3d49"/><path d="M196.594 476.309c1.203-2.22 2.398-4.446 3.625-6.653.101-.183.43-.242.957-.523-.977 2.558-2.977 4.433-2.707 7.414.761-.461 1.289-.781 1.816-1.102 0-.004-.043-.039-.043-.043-.496.586-.922 1.262-1.531 1.688-.149.101-.879-.625-1.5-1.09l-.64.281zm0 0M220.457 470.477c.41-.48.824-.957 1.234-1.438 1.153-1.18 2.286-2.379 3.465-3.531.555-.547 1.196-1.004 1.801-1.504.148.098.3.2.45.297l-1.571 3.484c-.117-.047-.238-.09-.356-.137.22-.632.438-1.265.653-1.898a9.377 9.377 0 0 0-.246-.172c-1.86 1.965-3.715 3.93-5.57 5.895l.14-.996zm0 0M225.055 468.965c-1.856 2.601-3.707 5.203-5.563 7.805.957-3.207 3.395-5.418 5.278-8 .093.066.19.132.285.195zm0 0" fill="#2e3d49"/><path d="M275.457 162.27l-16.148 9.246.011 21.3c-.03 9.782 7.883 17.739 17.676 17.766a17.658 17.658 0 0 0 8.89-2.352l13.075-7.503c5.156-2.672 8.684-8.047 8.703-14.254l.004-22.246-3.2-1.868-13.124 7.399.011 23.156c0 .988-.105 1.969-.3 2.926-.196.926-.48 1.84-.856 2.71-.094.227-.195.45-.304.673-.391-.047-.489-.067-1.082-.176-.848-.176-2.532-.656-4.555-1.961-.68-.465-1.32-.996-1.903-1.582a12.55 12.55 0 0 1-1.574-1.914c-.46-.688-.86-1.426-1.18-2.188a12.45 12.45 0 0 1-.742-2.418c-.171-.847-.21-1.722-.207-2.601l.012-22.242zm7.121 43.972c-.875.367-1.789.649-2.723.836-.953.192-1.835.29-2.82.285a14.611 14.611 0 0 1-2.926-.304 14.16 14.16 0 0 1-2.718-.852 14.556 14.556 0 0 1-7.7-7.738 14.393 14.393 0 0 1-.836-2.719c-.19-.953-.226-1.938-.222-2.926l-.004-19.437 12.7-7.399.007 20.387h-.004c-.02 7.746 5.387 14.23 12.676 15.793-.285.34-.492.668-.809.98a14.34 14.34 0 0 1-2.152 1.766c-.777.52-1.61.969-2.469 1.328zm21.508-17.18a12.748 12.748 0 0 1-1.953 4.594c-.461.684-.996 1.324-1.582 1.906-.586.579-1.23 1.11-1.914 1.567-.692.465-1.43.863-2.192 1.18-.86.37-1.593.578-2.422.742-.164.035-.418.066-.586.094.731-1.934 1.223-4.028 1.231-6.215l.004-21.305 9.668-5.547v20.383c0 .879-.078 1.75-.254 2.601zm0 0" fill="#01b3e3"/><path d="M349.066 189.086c0 4.023-3.359 7.312-7.898 7.312-4.54 0-7.813-3.289-7.813-7.312V174.66h-2.418v14.461c0 5.184 4 9.395 10.231 9.395 6.227 0 10.32-4.211 10.32-9.395l.004-14.473h-2.418zm25.747-14.426l-7.602-.012v23.555h7.555c7.023 0 11.796-4.34 11.796-11.785 0-7.375-4.726-11.758-11.75-11.758zm-.231 21.442l-4.953-.012v-19.328l4.953.008c5.723 0 9.582 3.437 9.582 9.648 0 6.25-3.824 9.684-9.582 9.684zm67.527.285c-5.558 0-9.53-4.551-9.53-10.133 0-5.516 3.972-9.77 9.464-9.77 4.39 0 7.121 2.594 7.121 2.594l1.23-1.695s-2.828-3.035-8.417-3.035c-6.692 0-11.793 5.16-11.793 11.941 0 6.809 4.968 12.234 11.89 12.234 5.758 0 8.953-3.628 8.953-3.628l-1.332-1.63s-2.86 3.122-7.586 3.122zm24.239 1.812h2.418v-23.547h-2.418zm16.32-21.433h8.46v21.437h2.419v-21.437h8.465v-2.114h-19.344zm50.023-2.118h-2.597l-7.5 10.848h-.067l-7.574-10.848h-2.629l9.031 13.426v10.13h2.418l-.007-10.13zm-125.675.004l-9.536 23.551H400l2.527-6.281 10.61-2.172 3.414 8.453h2.52l-9.536-23.55zm-3.43 14.684l4.656-11.41h.067l3.933 9.637zm0 0" fill="#2d3c49"/><path d="M16.185 18.572h1.997v1.995h-1.997zm0 0M16.185 591.431h1.997v2h-1.997zm0 0M773.818 18.572h1.997v1.995h-1.997zm0 0M773.818 591.431h1.997v2h-1.997zm0 0" transform="matrix(.89184 0 0 .89098 42.831 28.32)" fill="none" stroke="#00b2e3" stroke-miterlimit="10"/><use xlink:href="#a" x="284.64" y="99.36" fill="#01b0e0"/><use xlink:href="#b" x="290.385" y="99.36" fill="#01b0e0"/><use xlink:href="#c" x="292.395" y="99.36" fill="#01b0e0"/><use xlink:href="#b" x="297.33" y="99.36" fill="#01b0e0"/><use xlink:href="#d" x="299.34" y="99.36" fill="#01b0e0"/><use xlink:href="#b" x="304.5" y="99.36" fill="#01b0e0"/><use xlink:href="#e" x="306.51" y="99.36" fill="#01b0e0"/><use xlink:href="#b" x="308.715" y="99.36" fill="#01b0e0"/><use xlink:href="#f" x="310.725" y="99.36" fill="#01b0e0"/><use xlink:href="#b" x="315.285" y="99.36" fill="#01b0e0"/><use xlink:href="#e" x="317.295" y="99.36" fill="#01b0e0"/><use xlink:href="#b" x="319.5" y="99.36" fill="#01b0e0"/><use xlink:href="#c" x="321.51" y="99.36" fill="#01b0e0"/><use xlink:href="#b" x="326.445" y="99.36" fill="#01b0e0"/><use xlink:href="#g" x="328.455" y="99.36" fill="#01b0e0"/><use xlink:href="#b" x="334.32" y="99.36" fill="#01b0e0"/><use xlink:href="#b" x="336.33" y="99.36" fill="#01b0e0"/><use xlink:href="#b" x="338.34" y="99.36" fill="#01b0e0"/><use xlink:href="#h" x="340.35" y="99.36" fill="#01b0e0"/><use xlink:href="#b" x="345.54" y="99.36" fill="#01b0e0"/><use xlink:href="#c" x="347.55" y="99.36" fill="#01b0e0"/><use xlink:href="#b" x="352.485" y="99.36" fill="#01b0e0"/><use xlink:href="#d" x="354.495" y="99.36" fill="#01b0e0"/><use xlink:href="#b" x="359.655" y="99.36" fill="#01b0e0"/><use xlink:href="#i" x="361.665" y="99.36" fill="#01b0e0"/><use xlink:href="#b" x="366.33" y="99.36" fill="#01b0e0"/><use xlink:href="#e" x="368.34" y="99.36" fill="#01b0e0"/><use xlink:href="#b" x="370.545" y="99.36" fill="#01b0e0"/><use xlink:href="#f" x="372.555" y="99.36" fill="#01b0e0"/><use xlink:href="#b" x="377.115" y="99.36" fill="#01b0e0"/><use xlink:href="#e" x="379.125" y="99.36" fill="#01b0e0"/><use xlink:href="#b" x="381.33" y="99.36" fill="#01b0e0"/><use xlink:href="#h" x="383.34" y="99.36" fill="#01b0e0"/><use xlink:href="#b" x="388.53" y="99.36" fill="#01b0e0"/><use xlink:href="#j" x="390.54" y="99.36" fill="#01b0e0"/><use xlink:href="#b" x="396.285" y="99.36" fill="#01b0e0"/><use xlink:href="#i" x="398.295" y="99.36" fill="#01b0e0"/><use xlink:href="#b" x="402.96" y="99.36" fill="#01b0e0"/><use xlink:href="#c" x="404.97" y="99.36" fill="#01b0e0"/><use xlink:href="#b" x="409.905" y="99.36" fill="#01b0e0"/><use xlink:href="#b" x="411.915" y="99.36" fill="#01b0e0"/><use xlink:href="#b" x="413.925" y="99.36" fill="#01b0e0"/><use xlink:href="#k" x="416.16" y="99.36" fill="#01b0e0"/><use xlink:href="#b" x="422.745" y="99.36" fill="#01b0e0"/><use xlink:href="#f" x="424.755" y="99.36" fill="#01b0e0"/><use xlink:href="#b" x="429.315" y="99.36" fill="#01b0e0"/><use xlink:href="#b" x="431.325" y="99.36" fill="#01b0e0"/><use xlink:href="#b" x="433.335" y="99.36" fill="#01b0e0"/><use xlink:href="#h" x="435.345" y="99.36" fill="#01b0e0"/><use xlink:href="#b" x="440.535" y="99.36" fill="#01b0e0"/><use xlink:href="#k" x="442.545" y="99.36" fill="#01b0e0"/><use xlink:href="#b" x="449.13" y="99.36" fill="#01b0e0"/><use xlink:href="#l" x="451.14" y="99.36" fill="#01b0e0"/><use xlink:href="#b" x="458.985" y="99.36" fill="#01b0e0"/><use xlink:href="#m" x="460.995" y="99.36" fill="#01b0e0"/><use xlink:href="#b" x="465.915" y="99.36" fill="#01b0e0"/><use xlink:href="#n" x="467.925" y="99.36" fill="#01b0e0"/><use xlink:href="#b" x="472.215" y="99.36" fill="#01b0e0"/><use xlink:href="#c" x="474.225" y="99.36" fill="#01b0e0"/><use xlink:href="#b" x="479.16" y="99.36" fill="#01b0e0"/><use xlink:href="#i" x="481.17" y="99.36" fill="#01b0e0"/><use xlink:href="#b" x="485.835" y="99.36" fill="#01b0e0"/><use xlink:href="#e" x="487.845" y="99.36" fill="#01b0e0"/><use xlink:href="#b" x="490.05" y="99.36" fill="#01b0e0"/><use xlink:href="#k" x="492.06" y="99.36" fill="#01b0e0"/><use xlink:href="#b" x="498.645" y="99.36" fill="#01b0e0"/><use xlink:href="#o" x="500.655" y="99.36" fill="#01b0e0"/><use xlink:href="#p" x="366.72" y="125.28"/><use xlink:href="#q" x="370.095" y="125.28"/><use xlink:href="#r" x="375.9" y="125.28"/><use xlink:href="#s" x="381.78" y="125.28"/><use xlink:href="#t" x="387.075" y="125.28"/><use xlink:href="#u" x="389.28" y="125.28"/><use xlink:href="#v" x="393.375" y="125.28"/><use xlink:href="#w" x="399.195" y="125.28"/><use xlink:href="#t" x="401.085" y="125.28"/><use xlink:href="#x" x="403.29" y="125.28"/><use xlink:href="#y" x="408.54" y="125.28"/><use xlink:href="#u" x="415.11" y="125.28"/><use xlink:href="#z" x="419.205" y="125.28"/><use xlink:href="#A" x="319.2" y="266.4" fill="#2e3d49"/><use xlink:href="#B" x="335.745" y="266.4" fill="#2e3d49"/><use xlink:href="#C" x="349.71" y="266.4" fill="#2e3d49"/><use xlink:href="#D" x="365.115" y="266.4" fill="#2e3d49"/><use xlink:href="#E" x="374.445" y="266.4" fill="#2e3d49"/><use xlink:href="#F" x="388.425" y="266.4" fill="#2e3d49"/><use xlink:href="#G" x="394.8" y="266.4" fill="#2e3d49"/><use xlink:href="#H" x="400.635" y="266.4" fill="#2e3d49"/><use xlink:href="#I" x="415.56" y="266.4" fill="#2e3d49"/><use xlink:href="#J" x="429.18" y="266.4" fill="#2e3d49"/><use xlink:href="#B" x="444.69" y="266.4" fill="#2e3d49"/><use xlink:href="#K" x="458.655" y="266.4" fill="#2e3d49"/><use xlink:href="#L" x="326.88" y="297.12" fill="#01b0e0"/><use xlink:href="#M" x="333.78" y="297.12" fill="#01b0e0"/><use xlink:href="#N" x="338.94" y="297.12" fill="#01b0e0"/><use xlink:href="#t" x="343.305" y="297.12" fill="#01b0e0"/><use xlink:href="#N" x="345.51" y="297.12" fill="#01b0e0"/><use xlink:href="#q" x="349.875" y="297.12" fill="#01b0e0"/><use xlink:href="#O" x="355.68" y="297.12" fill="#01b0e0"/><use xlink:href="#O" x="360.435" y="297.12" fill="#01b0e0"/><use xlink:href="#s" x="365.19" y="297.12" fill="#01b0e0"/><use xlink:href="#N" x="370.485" y="297.12" fill="#01b0e0"/><use xlink:href="#N" x="374.85" y="297.12" fill="#01b0e0"/><use xlink:href="#P" x="379.215" y="297.12" fill="#01b0e0"/><use xlink:href="#q" x="382.56" y="297.12" fill="#01b0e0"/><use xlink:href="#Q" x="388.365" y="297.12" fill="#01b0e0"/><use xlink:href="#Q" x="390.78" y="297.12" fill="#01b0e0"/><use xlink:href="#R" x="393.195" y="297.12" fill="#01b0e0"/><use xlink:href="#t" x="398.46" y="297.12" fill="#01b0e0"/><use xlink:href="#O" x="400.665" y="297.12" fill="#01b0e0"/><use xlink:href="#S" x="405.42" y="297.12" fill="#01b0e0"/><use xlink:href="#T" x="411.255" y="297.12" fill="#01b0e0"/><use xlink:href="#U" x="420.45" y="297.12" fill="#01b0e0"/><use xlink:href="#Q" x="426.465" y="297.12" fill="#01b0e0"/><use xlink:href="#s" x="428.88" y="297.12" fill="#01b0e0"/><use xlink:href="#V" x="434.175" y="297.12" fill="#01b0e0"/><use xlink:href="#s" x="438.03" y="297.12" fill="#01b0e0"/><use xlink:href="#W" x="443.325" y="297.12" fill="#01b0e0"/><use xlink:href="#t" x="449.34" y="297.12" fill="#01b0e0"/><use xlink:href="#V" x="451.545" y="297.12" fill="#01b0e0"/><use xlink:href="#X" x="455.4" y="297.12" fill="#01b0e0"/><use xlink:href="#s" x="461.28" y="297.12" fill="#01b0e0"/><use xlink:href="#Y" x="297.6" y="360.48" fill="#2e3d49"/><use xlink:href="#Z" x="314.85" y="360.48" fill="#2e3d49"/><use xlink:href="#aa" x="326.535" y="360.48" fill="#2e3d49"/><use xlink:href="#ab" x="338.34" y="360.48" fill="#2e3d49"/><use xlink:href="#ac" x="343.185" y="360.48" fill="#2e3d49"/><use xlink:href="#ad" x="348.03" y="360.48" fill="#2e3d49"/><use xlink:href="#ae" x="358.62" y="360.48" fill="#2e3d49"/><use xlink:href="#af" x="363.045" y="360.48" fill="#2e3d49"/><use xlink:href="#ad" x="383.28" y="360.48" fill="#2e3d49"/><use xlink:href="#aa" x="393.87" y="360.48" fill="#2e3d49"/><use xlink:href="#ae" x="405.675" y="360.48" fill="#2e3d49"/><use xlink:href="#ag" x="410.1" y="360.48" fill="#2e3d49"/><use xlink:href="#ah" x="420.345" y="360.48" fill="#2e3d49"/><use xlink:href="#ad" x="432.39" y="360.48" fill="#2e3d49"/><use xlink:href="#ai" x="442.98" y="360.48" fill="#2e3d49"/><use xlink:href="#ab" x="452.49" y="360.48" fill="#2e3d49"/><use xlink:href="#aj" x="457.335" y="360.48" fill="#2e3d49"/><use xlink:href="#ac" x="467.655" y="360.48" fill="#2e3d49"/><use xlink:href="#ab" x="472.5" y="360.48" fill="#2e3d49"/><use xlink:href="#ak" x="477.345" y="360.48" fill="#2e3d49"/><use xlink:href="#al" x="486.09" y="360.48" fill="#2e3d49"/><use xlink:href="#am" x="317.76" y="392.16" fill="#01b0e0"/><use xlink:href="#an" x="325.305" y="392.16" fill="#01b0e0"/><use xlink:href="#ao" x="327.72" y="392.16" fill="#01b0e0"/><use xlink:href="#an" x="334.605" y="392.16" fill="#01b0e0"/><use xlink:href="#am" x="337.02" y="392.16" fill="#01b0e0"/><use xlink:href="#an" x="344.565" y="392.16" fill="#01b0e0"/><use xlink:href="#ap" x="346.98" y="392.16" fill="#01b0e0"/><use xlink:href="#an" x="354.885" y="392.16" fill="#01b0e0"/><use xlink:href="#aq" x="357.3" y="392.16" fill="#01b0e0"/><use xlink:href="#an" x="364.35" y="392.16" fill="#01b0e0"/><use xlink:href="#ar" x="366.765" y="392.16" fill="#01b0e0"/><use xlink:href="#an" x="372.69" y="392.16" fill="#01b0e0"/><use xlink:href="#as" x="375.105" y="392.16" fill="#01b0e0"/><use xlink:href="#an" x="381.945" y="392.16" fill="#01b0e0"/><use xlink:href="#at" x="384.36" y="392.16" fill="#01b0e0"/><use xlink:href="#an" x="390.555" y="392.16" fill="#01b0e0"/><use xlink:href="#ar" x="392.97" y="392.16" fill="#01b0e0"/><use xlink:href="#an" x="398.895" y="392.16" fill="#01b0e0"/><use xlink:href="#ar" x="401.31" y="392.16" fill="#01b0e0"/><use xlink:href="#an" x="407.235" y="392.16" fill="#01b0e0"/><use xlink:href="#an" x="409.65" y="392.16" fill="#01b0e0"/><use xlink:href="#an" x="412.065" y="392.16" fill="#01b0e0"/><use xlink:href="#au" x="414.48" y="392.16" fill="#01b0e0"/><use xlink:href="#an" x="420.39" y="392.16" fill="#01b0e0"/><use xlink:href="#at" x="422.805" y="392.16" fill="#01b0e0"/><use xlink:href="#ap" x="431.415" y="392.16" fill="#01b0e0"/><use xlink:href="#an" x="439.32" y="392.16" fill="#01b0e0"/><use xlink:href="#as" x="441.735" y="392.16" fill="#01b0e0"/><use xlink:href="#an" x="448.575" y="392.16" fill="#01b0e0"/><use xlink:href="#at" x="450.99" y="392.16" fill="#01b0e0"/><use xlink:href="#an" x="457.185" y="392.16" fill="#01b0e0"/><use xlink:href="#ao" x="459.6" y="392.16" fill="#01b0e0"/><use xlink:href="#an" x="466.485" y="392.16" fill="#01b0e0"/><use xlink:href="#av" x="468.9" y="392.16" fill="#01b0e0"/><use xlink:href="#aw" x="358.56" y="472.8" fill="#01b0e0"/><use xlink:href="#S" x="364.26" y="472.8" fill="#01b0e0"/><use xlink:href="#ax" x="370.095" y="472.8" fill="#01b0e0"/><use xlink:href="#aw" x="374.625" y="472.8" fill="#01b0e0"/><use xlink:href="#ay" x="380.325" y="472.8" fill="#01b0e0"/><use xlink:href="#s" x="383.865" y="472.8" fill="#01b0e0"/><use xlink:href="#M" x="389.16" y="472.8" fill="#01b0e0"/><use xlink:href="#V" x="394.32" y="472.8" fill="#01b0e0"/><use xlink:href="#s" x="398.175" y="472.8" fill="#01b0e0"/><use xlink:href="#W" x="403.47" y="472.8" fill="#01b0e0"/><use xlink:href="#t" x="409.485" y="472.8" fill="#01b0e0"/><use xlink:href="#az" x="411.69" y="472.8" fill="#01b0e0"/><use xlink:href="#aA" x="420.045" y="472.8" fill="#01b0e0"/><use xlink:href="#V" x="422.46" y="472.8" fill="#01b0e0"/><use xlink:href="#X" x="426.315" y="472.8" fill="#01b0e0"/><use xlink:href="#aB" x="358.56" y="493.92" fill="#757c80"/><use xlink:href="#aC" x="363.69" y="493.92" fill="#757c80"/><use xlink:href="#aC" x="368.46" y="493.92" fill="#757c80"/><use xlink:href="#aD" x="373.23" y="493.92" fill="#757c80"/><use xlink:href="#aE" x="377.565" y="493.92" fill="#757c80"/><use xlink:href="#aF" x="379.545" y="493.92" fill="#757c80"/><use xlink:href="#aG" x="358.56" y="515.04" fill="#757c80"/><use xlink:href="#aH" x="363.84" y="515.04" fill="#757c80"/><use xlink:href="#aI" x="368.76" y="515.04" fill="#757c80"/><use xlink:href="#aJ" x="372.975" y="515.04" fill="#757c80"/><use xlink:href="#aK" x="376.86" y="515.04" fill="#757c80"/><use xlink:href="#aL" x="378.84" y="515.04" fill="#757c80"/><use xlink:href="#aM" x="381.99" y="515.04" fill="#757c80"/><use xlink:href="#aN" x="386.295" y="515.04" fill="#757c80"/><use xlink:href="#aO" x="388.095" y="515.04" fill="#757c80"/><use xlink:href="#aI" x="392.91" y="515.04" fill="#757c80"/><use xlink:href="#aP" x="397.125" y="515.04" fill="#757c80"/><use xlink:href="#aN" x="400.695" y="515.04" fill="#757c80"/><use xlink:href="#aJ" x="402.495" y="515.04" fill="#757c80"/><use xlink:href="#aC" x="406.38" y="515.04" fill="#757c80"/><use xlink:href="#aQ" x="411.15" y="515.04" fill="#757c80"/><use xlink:href="#aR" x="415.965" y="515.04" fill="#757c80"/><use xlink:href="#aK" x="418.695" y="515.04" fill="#757c80"/><use xlink:href="#aS" x="420.675" y="515.04" fill="#757c80"/><use xlink:href="#aT" x="423.57" y="515.04" fill="#757c80"/><use xlink:href="#aF" x="431.1" y="515.04" fill="#757c80"/><use xlink:href="#aH" x="435.435" y="515.04" fill="#757c80"/><use xlink:href="#aN" x="440.355" y="515.04" fill="#757c80"/><use xlink:href="#aL" x="442.155" y="515.04" fill="#757c80"/><use xlink:href="#aO" x="445.305" y="515.04" fill="#757c80"/><use xlink:href="#aF" x="450.12" y="515.04" fill="#757c80"/><use xlink:href="#aN" x="454.455" y="515.04" fill="#757c80"/><use xlink:href="#aU" x="456.255" y="515.04" fill="#757c80"/><use xlink:href="#aI" x="461.175" y="515.04" fill="#757c80"/><use xlink:href="#aS" x="465.39" y="515.04" fill="#757c80"/><use xlink:href="#aL" x="468.285" y="515.04" fill="#757c80"/><use xlink:href="#aK" x="471.435" y="515.04" fill="#757c80"/><use xlink:href="#aJ" x="473.415" y="515.04" fill="#757c80"/><use xlink:href="#aK" x="477.3" y="515.04" fill="#757c80"/><use xlink:href="#aU" x="479.28" y="515.04" fill="#757c80"/><use xlink:href="#aI" x="484.2" y="515.04" fill="#757c80"/><use xlink:href="#aL" x="488.415" y="515.04" fill="#757c80"/><use xlink:href="#aK" x="491.565" y="515.04" fill="#757c80"/><use xlink:href="#aC" x="493.545" y="515.04" fill="#757c80"/><use xlink:href="#aQ" x="498.315" y="515.04" fill="#757c80"/><use xlink:href="#aN" x="503.13" y="515.04" fill="#757c80"/><use xlink:href="#aC" x="504.93" y="515.04" fill="#757c80"/><use xlink:href="#aR" x="509.7" y="515.04" fill="#757c80"/><use xlink:href="#aN" x="512.43" y="515.04" fill="#757c80"/><use xlink:href="#aL" x="514.23" y="515.04" fill="#757c80"/><use xlink:href="#aO" x="517.38" y="515.04" fill="#757c80"/><use xlink:href="#aK" x="522.195" y="515.04" fill="#757c80"/><use xlink:href="#aP" x="524.175" y="515.04" fill="#757c80"/><use xlink:href="#aN" x="527.745" y="515.04" fill="#757c80"/><use xlink:href="#aK" x="529.545" y="515.04" fill="#757c80"/><use xlink:href="#aQ" x="531.525" y="515.04" fill="#757c80"/><use xlink:href="#aH" x="536.34" y="515.04" fill="#757c80"/><use xlink:href="#aK" x="541.26" y="515.04" fill="#757c80"/><use xlink:href="#aV" x="543.24" y="515.04" fill="#757c80"/><use xlink:href="#aK" x="547.53" y="515.04" fill="#757c80"/><use xlink:href="#aH" x="549.51" y="515.04" fill="#757c80"/><use xlink:href="#aW" x="554.43" y="515.04" fill="#757c80"/><use xlink:href="#aI" x="559.17" y="515.04" fill="#757c80"/><use xlink:href="#aE" x="563.385" y="515.04" fill="#757c80"/><use xlink:href="#aN" x="565.365" y="515.04" fill="#757c80"/><use xlink:href="#aK" x="567.165" y="515.04" fill="#757c80"/><use xlink:href="#aQ" x="569.145" y="515.04" fill="#757c80"/><use xlink:href="#aN" x="573.96" y="515.04" fill="#757c80"/><use xlink:href="#aL" x="575.76" y="515.04" fill="#757c80"/><use xlink:href="#aO" x="578.91" y="515.04" fill="#757c80"/><use xlink:href="#aK" x="583.725" y="515.04" fill="#757c80"/><use xlink:href="#aP" x="585.705" y="515.04" fill="#757c80"/><use xlink:href="#aN" x="589.275" y="515.04" fill="#757c80"/><use xlink:href="#aU" x="591.075" y="515.04" fill="#757c80"/><use xlink:href="#aS" x="595.995" y="515.04" fill="#757c80"/><use xlink:href="#aC" x="598.89" y="515.04" fill="#757c80"/><use xlink:href="#aD" x="603.66" y="515.04" fill="#757c80"/><use xlink:href="#aS" x="607.995" y="515.04" fill="#757c80"/><use xlink:href="#aI" x="610.89" y="515.04" fill="#757c80"/><use xlink:href="#aT" x="615.105" y="515.04" fill="#757c80"/><use xlink:href="#aX" x="622.635" y="515.04" fill="#757c80"/><use xlink:href="#aY" x="358.56" y="523.68" fill="#757c80"/><use xlink:href="#aC" x="363.225" y="523.68" fill="#757c80"/><use xlink:href="#aQ" x="367.995" y="523.68" fill="#757c80"/><use xlink:href="#aR" x="372.81" y="523.68" fill="#757c80"/><use xlink:href="#aK" x="375.54" y="523.68" fill="#757c80"/><use xlink:href="#aS" x="377.52" y="523.68" fill="#757c80"/><use xlink:href="#aT" x="380.415" y="523.68" fill="#757c80"/><use xlink:href="#aN" x="387.945" y="523.68" fill="#757c80"/><use xlink:href="#aU" x="389.745" y="523.68" fill="#757c80"/><use xlink:href="#aS" x="394.665" y="523.68" fill="#757c80"/><use xlink:href="#aC" x="397.56" y="523.68" fill="#757c80"/><use xlink:href="#aD" x="402.33" y="523.68" fill="#757c80"/><use xlink:href="#aS" x="406.665" y="523.68" fill="#757c80"/><use xlink:href="#aI" x="409.56" y="523.68" fill="#757c80"/><use xlink:href="#aT" x="413.775" y="523.68" fill="#757c80"/><use xlink:href="#aN" x="421.305" y="523.68" fill="#757c80"/><use xlink:href="#aJ" x="423.105" y="523.68" fill="#757c80"/><use xlink:href="#aC" x="426.99" y="523.68" fill="#757c80"/><use xlink:href="#aT" x="431.76" y="523.68" fill="#757c80"/><use xlink:href="#aU" x="439.29" y="523.68" fill="#757c80"/><use xlink:href="#aE" x="444.21" y="523.68" fill="#757c80"/><use xlink:href="#aF" x="446.19" y="523.68" fill="#757c80"/><use xlink:href="#aL" x="450.525" y="523.68" fill="#757c80"/><use xlink:href="#aK" x="453.675" y="523.68" fill="#757c80"/><use xlink:href="#aC" x="455.655" y="523.68" fill="#757c80"/><use xlink:href="#aQ" x="460.425" y="523.68" fill="#757c80"/><use xlink:href="#aN" x="465.24" y="523.68" fill="#757c80"/><use xlink:href="#aI" x="467.04" y="523.68" fill="#757c80"/><use xlink:href="#aL" x="471.255" y="523.68" fill="#757c80"/><use xlink:href="#aN" x="474.405" y="523.68" fill="#757c80"/><use xlink:href="#aJ" x="476.205" y="523.68" fill="#757c80"/><use xlink:href="#aC" x="480.09" y="523.68" fill="#757c80"/><use xlink:href="#aQ" x="484.86" y="523.68" fill="#757c80"/><use xlink:href="#aR" x="489.675" y="523.68" fill="#757c80"/><use xlink:href="#aK" x="492.405" y="523.68" fill="#757c80"/><use xlink:href="#aS" x="494.385" y="523.68" fill="#757c80"/><use xlink:href="#aT" x="497.28" y="523.68" fill="#757c80"/><use xlink:href="#aX" x="504.81" y="523.68" fill="#757c80"/><use xlink:href="#aW" x="506.49" y="523.68" fill="#757c80"/><use xlink:href="#aH" x="511.23" y="523.68" fill="#757c80"/><use xlink:href="#aI" x="516.15" y="523.68" fill="#757c80"/><use xlink:href="#aJ" x="520.365" y="523.68" fill="#757c80"/><use xlink:href="#aK" x="524.25" y="523.68" fill="#757c80"/><use xlink:href="#aL" x="526.23" y="523.68" fill="#757c80"/><use xlink:href="#aM" x="529.38" y="523.68" fill="#757c80"/><use xlink:href="#aX" x="533.685" y="523.68" fill="#757c80"/><use xlink:href="#aJ" x="535.365" y="523.68" fill="#757c80"/><use xlink:href="#aC" x="539.25" y="523.68" fill="#757c80"/><use xlink:href="#aT" x="544.02" y="523.68" fill="#757c80"/><use xlink:href="#aZ" x="551.55" y="523.68" fill="#757c80"/><use xlink:href="#ba" x="554.895" y="523.68" fill="#757c80"/><use xlink:href="#bb" x="559.875" y="523.68" fill="#757c80"/><use xlink:href="#aB" x="564.06" y="523.68" fill="#757c80"/><use xlink:href="#bc" x="569.19" y="523.68" fill="#757c80"/><use xlink:href="#aG" x="573.51" y="523.68" fill="#757c80"/><use xlink:href="#bd" x="578.79" y="523.68" fill="#757c80"/><use xlink:href="#be" x="583.215" y="523.68" fill="#757c80"/><use xlink:href="#bf" x="587.505" y="523.68" fill="#757c80"/><use xlink:href="#bb" x="106.08" y="496.8" fill="#757c80"/><use xlink:href="#aF" x="110.265" y="496.8" fill="#757c80"/><use xlink:href="#bg" x="114.6" y="496.8" fill="#757c80"/><use xlink:href="#aI" x="119.43" y="496.8" fill="#757c80"/><use xlink:href="#aP" x="123.645" y="496.8" fill="#757c80"/><use xlink:href="#aL" x="127.215" y="496.8" fill="#757c80"/><use xlink:href="#aK" x="130.365" y="496.8" fill="#757c80"/><use xlink:href="#aI" x="132.345" y="496.8" fill="#757c80"/><use xlink:href="#aQ" x="136.56" y="496.8" fill="#757c80"/><use xlink:href="#aN" x="141.375" y="496.8" fill="#757c80"/><use xlink:href="#bh" x="143.175" y="496.8" fill="#757c80"/><use xlink:href="#aO" x="147.375" y="496.8" fill="#757c80"/><use xlink:href="#aS" x="152.19" y="496.8" fill="#757c80"/><use xlink:href="#aW" x="155.085" y="496.8" fill="#757c80"/><use xlink:href="#aQ" x="159.825" y="496.8" fill="#757c80"/><use xlink:href="#bi" x="106.08" y="507.36" fill="#757c80"/><use xlink:href="#aC" x="110.19" y="507.36" fill="#757c80"/><use xlink:href="#aW" x="114.96" y="507.36" fill="#757c80"/><use xlink:href="#aQ" x="119.7" y="507.36" fill="#757c80"/><use xlink:href="#aH" x="124.515" y="507.36" fill="#757c80"/><use xlink:href="#aF" x="129.435" y="507.36" fill="#757c80"/><use xlink:href="#aS" x="133.77" y="507.36" fill="#757c80"/><use xlink:href="#bj" x="136.665" y="507.36" fill="#757c80"/><use xlink:href="#aN" x="138.21" y="507.36" fill="#757c80"/><use xlink:href="#aG" x="140.01" y="507.36" fill="#757c80"/><use xlink:href="#aH" x="145.29" y="507.36" fill="#757c80"/><use xlink:href="#aI" x="150.21" y="507.36" fill="#757c80"/><use xlink:href="#aJ" x="154.425" y="507.36" fill="#757c80"/><use xlink:href="#aK" x="158.31" y="507.36" fill="#757c80"/><use xlink:href="#aL" x="160.29" y="507.36" fill="#757c80"/><use xlink:href="#aM" x="163.44" y="507.36" fill="#757c80"/></svg>