<svg xmlns="http://www.w3.org/2000/svg" width="1200" height="1200"><g fill="#0476D8"><circle cx="648.151" cy="470.809" r="47.584"/><ellipse cx="438.554" cy="616.96" rx="50.416" ry="47.584"/><ellipse cx="527.491" cy="739.886" rx="51.549" ry="49.284"/><path d="M480.473 549.549l13.596-126.324 106.497 50.983zM641.919 664.544l-30.023 124.625 122.926-30.023zM691.203 667.376l27.191-124.058 97.434 95.735z"/></g><path fill="#8F8F8F" d="M201.483 98.633c-94.639 0-171.359 71.775-171.359 160.313s76.72 160.313 171.359 160.313 171.359-71.775 171.359-160.313S296.123 98.633 201.483 98.633zM93.569 315.594s-1.634-47.175 49.284-101.966c52.116-56.081 129.157-53.249 129.157-53.249l18.694 180.706-197.135-25.491zM989.453 79.94c-94.639 0-171.359 71.775-171.359 160.313s76.72 160.313 171.359 160.313 171.359-71.775 171.359-160.313S1084.092 79.94 989.453 79.94zM1063 320.126L875.675 302.32a1.326 1.326 0 01-1.154-1.077c-.733-4.132-1.302-26.991 17.026-55.137 21.148-32.478 69.487-115.561 85.349-118.583 15.861-3.021 86.104 43.052 95.168 80.817 9.064 37.766-9.064 111.786-9.064 111.786zM998.517 789.169c-94.639 0-171.359 71.775-171.359 160.313s76.72 160.313 171.359 160.313 171.359-71.775 171.359-160.313-76.72-160.313-171.359-160.313zm-43.336 271.343s-62.313-159.18-58.347-169.943c0 0 75.563-20.393 175.608-15.861 0 0 15.861 35.688 20.393 140.486 0-.001-122.359 45.884-137.654 45.318zM225.673 799.792c-94.388-6.899-176.136 59.093-182.589 147.396-6.454 88.303 64.83 165.479 159.218 172.377 94.387 6.899 176.135-59.093 182.589-147.396 6.453-88.302-64.831-165.478-159.218-172.377zM333.8 950.465c-14.721 24.079-73.51 118.903-87.848 121.376-16.428 2.832-50.983-16.994-94.035-67.977s-55.115-95.735-49.85-97.434c0 0 106.498-35.122 117.827-38.52s30.023 10.197 43.619 22.659c11.138 10.209 53.447 40.187 68.383 50.693a6.859 6.859 0 011.904 9.203z"/></svg>