<svg xmlns="http://www.w3.org/2000/svg" height="256" width="256" preserveAspectRatio="xMidYMid"><path d="M0 0h256v256H0V0z" fill="#F7DF1E"/><path d="M67.312 213.93l19.591-11.85c3.779 6.7 7.217 12.37 15.467 12.37 7.9 0 12.89-3.1 12.89-15.12v-81.8h24.05v82.14c0 24.91-14.6 36.26-35.91 36.26-19.247 0-30.418-9.97-36.089-22M152.38 211.35l19.59-11.34c5.16 8.42 11.86 14.61 23.71 14.61 9.97 0 16.33-4.98 16.33-11.86 0-8.25-6.53-11.17-17.53-15.98l-6.01-2.58c-17.36-7.39-28.87-16.66-28.87-36.26 0-18.04 13.74-31.79 35.23-31.79 15.29 0 26.29 5.33 34.19 19.25l-18.73 12.03c-4.12-7.39-8.59-10.31-15.46-10.31-7.05 0-11.52 4.47-11.52 10.31 0 7.22 4.47 10.14 14.78 14.61l6.01 2.57c20.45 8.77 31.97 17.7 31.97 37.81 0 21.65-17.01 33.51-39.87 33.51-22.34 0-36.77-10.66-43.82-24.58"/></svg>