<svg xmlns="http://www.w3.org/2000/svg" height="228" width="256" preserveAspectRatio="xMidYMid"><path d="M210.48 73.824a167.35 167.35 0 0 0-8.24-2.597c.47-1.901.9-3.777 1.28-5.621 6.23-30.281 2.16-54.676-11.77-62.708-13.36-7.7-35.2.329-57.26 19.526a167.51 167.51 0 0 0-6.37 5.848 163.005 163.005 0 0 0-4.24-3.917C100.76 3.829 77.587-4.822 63.673 3.233 50.33 10.957 46.379 33.89 51.995 62.588a171.517 171.517 0 0 0 1.892 8.481 169.263 169.263 0 0 0-9.474 2.979C17.309 83.497 0 98.307 0 113.67c0 15.86 18.582 31.78 46.812 41.43 2.227.76 4.539 1.48 6.921 2.16-.773 3.11-1.445 6.16-2.01 9.14-5.354 28.2-1.173 50.59 12.134 58.26 13.744 7.93 36.813-.22 59.273-19.85 1.78-1.55 3.56-3.2 5.34-4.92 2.32 2.22 4.63 4.33 6.92 6.31 21.76 18.72 43.25 26.28 56.54 18.59 13.73-7.95 18.2-32.01 12.4-61.27-.44-2.24-.96-4.52-1.53-6.84 1.62-.48 3.21-.98 4.76-1.49 29.35-9.73 48.44-25.44 48.44-41.52 0-15.419-17.87-30.328-45.52-39.846zm-6.36 70.986c-1.4.46-2.84.91-4.3 1.34-3.24-10.25-7.61-21.16-12.97-32.43 5.11-11 9.31-21.766 12.46-31.956 2.62.758 5.16 1.557 7.61 2.4 23.69 8.156 38.14 20.216 38.14 29.506 0 9.89-15.6 22.74-40.94 31.14zm-10.52 20.83c2.57 12.94 2.93 24.64 1.23 33.79-1.52 8.22-4.59 13.7-8.38 15.89-8.07 4.67-25.32-1.4-43.92-17.41-2.14-1.84-4.29-3.8-6.44-5.87 7.21-7.89 14.42-17.06 21.46-27.25 12.37-1.09 24.06-2.89 34.67-5.34.52 2.11.98 4.17 1.38 6.19zM87.28 214.51c-7.882 2.79-14.16 2.87-17.955.68-8.075-4.66-11.432-22.64-6.853-46.75.525-2.76 1.149-5.6 1.869-8.5 10.486 2.32 22.093 3.99 34.498 4.99 7.085 9.97 14.505 19.13 21.975 27.15-1.63 1.58-3.26 3.08-4.88 4.49-9.93 8.69-19.882 14.85-28.654 17.94zm-36.927-69.76c-12.483-4.27-22.792-9.81-29.858-15.87-6.35-5.43-9.555-10.83-9.555-15.21 0-9.32 13.897-21.214 37.076-29.295a157.655 157.655 0 0 1 8.812-2.773c3.204 10.42 7.406 21.318 12.477 32.328-5.137 11.18-9.399 22.25-12.634 32.8-2.178-.63-4.288-1.29-6.318-1.98zm12.378-84.262c-4.811-24.588-1.616-43.135 6.425-47.79 8.564-4.958 27.502 2.111 47.458 19.835 1.28 1.133 2.56 2.318 3.85 3.545-7.44 7.987-14.79 17.079-21.812 26.988-12.04 1.116-23.565 2.908-34.161 5.309a161.21 161.21 0 0 1-1.76-7.887zm110.42 27.267a345.947 345.947 0 0 0-7.78-12.803c8.17 1.033 15.99 2.404 23.34 4.081-2.2 7.071-4.95 14.464-8.19 22.047a369.531 369.531 0 0 0-7.37-13.325zm-45.03-43.861c5.05 5.465 10.1 11.566 15.07 18.186a322.612 322.612 0 0 0-30.26-.006c4.97-6.559 10.07-12.652 15.19-18.18zM82.803 87.831a322.392 322.392 0 0 0-7.227 13.239c-3.184-7.554-5.909-14.981-8.134-22.153 7.304-1.634 15.093-2.971 23.209-3.984a320.694 320.694 0 0 0-7.848 12.897v.001zm8.081 65.349c-8.385-.93-16.291-2.2-23.593-3.79 2.261-7.3 5.045-14.88 8.298-22.6 2.291 4.43 4.711 8.85 7.257 13.25h.001a323.81 323.81 0 0 0 8.037 13.14zm37.537 31.03c-5.18-5.59-10.35-11.78-15.4-18.43 4.9.19 9.9.29 14.98.29 5.22 0 10.38-.12 15.45-.34-4.98 6.77-10.02 12.97-15.03 18.48zm52.2-57.81c3.42 7.8 6.31 15.34 8.6 22.52-7.42 1.69-15.44 3.05-23.88 4.07 2.66-4.21 5.28-8.56 7.86-13.03 2.61-4.52 5.08-9.05 7.42-13.56zm-16.9 8.1c-4 6.94-8.11 13.56-12.28 19.81-7.59.54-15.44.82-23.44.82-7.97 0-15.72-.24-23.18-.73a307.817 307.817 0 0 1-12.511-19.84h.001a307.026 307.026 0 0 1-10.923-20.63 311.16 311.16 0 0 1 10.89-20.637l-.001.001a306.874 306.874 0 0 1 12.414-19.761c7.61-.576 15.42-.876 23.31-.876 7.93 0 15.74.303 23.35.883a326.473 326.473 0 0 1 12.34 19.695c4.01 6.935 7.7 13.805 11.03 20.545-3.32 6.85-7 13.79-11 20.72zm22.56-122.13c8.58 4.944 11.91 24.881 6.52 51.026-.34 1.668-.73 3.367-1.15 5.089-10.62-2.451-22.15-4.274-34.22-5.407-7.04-10.017-14.33-19.124-21.65-27.008 1.97-1.892 3.94-3.697 5.89-5.4 18.9-16.447 36.57-22.941 44.61-18.3zm-58.28 78.435c12.62 0 22.86 10.232 22.86 22.862 0 12.62-10.24 22.86-22.86 22.86s-22.86-10.24-22.86-22.86c0-12.63 10.24-22.862 22.86-22.862z" fill="#00D8FF"/></svg>