<svg xmlns="http://www.w3.org/2000/svg" viewBox="0 0 1000 1000"><path d="M136.8 736.4C66.9 736.4 10 793.2 10 863.2 10 933.1 66.9 990 136.8 990s126.8-56.9 126.8-126.8c0-70-56.9-126.8-126.8-126.8z"/><path d="M31.1 375.1c-5.5-.1-10.7 1.8-14.6 5.6-3.9 3.8-6.1 9-6.1 14.4v162.7c0 10.7 8.4 19.5 19.2 20 214.1 9.8 382.9 178.6 392.6 392.6.5 10.7 9.3 19.1 20 19.1h162.7c5.4 0 10.7-2.2 14.4-6.1 3.8-3.9 5.8-9.2 5.6-14.6-5.2-156-69.1-303-180-413.9C334.1 444.2 187.1 380.3 31.1 375.1z"/><path d="M702.9 297.2C522.9 117.2 284.3 15.3 30.8 10c-5.4-.3-10.6 1.9-14.4 5.7-3.9 3.8-6 8.9-6 14.3v162.6c0 10.9 8.7 19.8 19.6 20.1C437.3 223 777 562.8 787.2 970.1c.3 10.9 9.2 19.5 20.1 19.5h162.6c5.4 0 10.6-2.2 14.3-6 3.8-3.9 5.8-9.1 5.7-14.5-5.1-253.4-107.1-492-287-671.9z"/></svg>